<?xml version="1.0" encoding="utf-8"?>
<!-- Generator: Adobe Illustrator 22.0.0, SVG Export Plug-In . SVG Version: 6.00 Build 0)  -->
<svg version="1.1" id="Layer_1" xmlns="http://www.w3.org/2000/svg" xmlns:xlink="http://www.w3.org/1999/xlink" x="0px" y="0px"
	 viewBox="0 0 841.9 595.3" style="enable-background:new 0 0 841.9 595.3;" xml:space="preserve">
<style type="text/css">
	.st0{fill:#FBF9FB;}
	.st1{fill:#FCEDD4;}
	.st2{fill:#775CA7;}
	.st3{fill:#FBC8B2;}
	.st4{fill:#8C75B5;}
	.st5{fill:#C1E5EC;}
	.st6{fill:#F8BD64;}
	.st7{fill:#F5B098;}
	.st8{fill:#6F51A1;}
	.st9{fill:#E3DDE3;}
	.st10{fill:#391D20;}
	.st11{fill:#9D8CC3;}
	.st12{fill:#824C22;}
	.st13{fill:#B49DCA;}
	.st14{fill:#452E3F;}
	.st15{fill:#FABD31;}
	.st16{fill:#C2C1C3;}
	.st17{fill:#E5AE54;}
	.st18{fill:#F6D5CA;}
	.st19{fill:#D2C4E0;}
	.st20{fill:#FCE2B2;}
	.st21{fill:#FFCB68;}
	.st22{fill:#FFD992;}
	.st23{fill:#624197;}
	.st24{fill:#471718;}
	.st25{fill:#F2EEF4;}
	.st26{fill:#525560;}
	.st27{fill:#414142;}
	.st28{fill:#ABAEAF;}
	.st29{fill:#CFD1D3;}
</style>
<g>
	<path class="st0" d="M237.1,433.7c0-132.6,0-265.1-0.1-397.7c0-8.5,7.8-15.9,14.8-15.8c68.8,0.2,137.6,0.1,206.4,0.1
		c7.2,0,14.1,6.9,14.1,14.1c0,65.6,0,131.2,0,196.8c0,1,0.5,2.1,0.8,3.1c-0.8,1.5-1.6,3.1-2.3,4.6c-0.3,0.6-0.6,1.1-0.9,1.7
		c-0.1,0.1-0.1,0.2-0.2,0.3c-0.4,0.4-0.8,0.8-1.1,1.4c-6.4,13-13,26-19.2,39.1c-2.5,5.2-4.3,10.6-6.4,16c-1.3,2-1.7,3.7,0.8,5
		c0.2,0.1,0.3,0.6,0.4,0.9c-0.8,2.3-1.9,4.5-2.5,6.9c-0.7,2.5-1.5,5.2-1.3,7.7c0.8,6.7,2.9,12.9,6.9,18.3c-0.5,0-1,0-1.4,0
		c-0.2-0.1-0.4-0.3-0.6-0.4c-8.7-1.8-17.5-3.7-26.2-5.4c-5.6-1.1-9.8,3.2-9.7,9.5c0,0.5,0.1,1.1,0.1,1.6c0.3,1.1,0.7,2.1,1,3.2
		c0.1,0.3,0.3,0.7,0.4,1c0.4,1.1,0.9,2.1,1.3,3.2c0.1,0.4,0.2,0.8,0.4,1.1c0,0.1-0.1,0.1-0.1,0.2c0.1,0.1,0.1,0.2,0.2,0.3
		c0.3,0.9,0.7,1.8,1,2.6c0.8,2.2,1.8,4.3,2.5,6.5c1.2,4,2.9,7.1,7.5,6.4c0,1.4,0,2.7,0,4.1c-2.7,1.9-5.3,3.9-8,5.8
		c-2.5-0.2-5-0.3-7.5-0.5c0-1,0.1-1.9,0.1-2.9c0-35,0-70,0-105.1c1.4-0.1,2.6-0.2,3.8-0.3V245h-3.7c-1.3,0.4-2.7-0.2-4-0.2
		c-8,0.1-16,0.4-24,0.4c-11.1,0.1-22.2,0-33.2,0c-2.7,0-5.5,0.3-8.2,0.4c-4,0-7.9,0-11.9,0.1c-3.5,0-10.4,0.2-10.4,0.2
		s-16.2,0-16.5,0v21h5c0,1.8,0.1,3.6,0.1,5.3c0,33.8,0,67.5,0,101.3c0,0.6,0.6,1.2,0.9,1.8c0.9,0.2,1.7,0.4,2.6,0.4
		c10.1,0,20.3,0,30.4,0.1c0.9,0,1.9,0.3,2.8,0.5c-8.2,0.2-16.5,0.3-24.7,0.6c-1.4,0-3.5-0.6-3.4,1.8c0.1,2.2,2.1,1.4,3.4,1.4
		c16.4-0.1,32.9-0.3,49.3-0.5c0.5,0.6,1,1.2,1.5,1.6c4.5,3.8,9,7.5,13.4,11.2c3.1,2.6,6.1,5.4,9.1,8c-2.2,2.8-4.5,5.4-6.5,8.3
		c-10,13.9-17.2,29.3-22.5,45.8c-4.5-0.3-9-0.6-13.5-0.8c-3.2-0.1-3.8,0.4-3.1,3.8c1,5.1,2.4,10.1,3.7,15.2c1.2,4.6,1.8,5,6.2,4.9
		c0,0.3,0,0.7-0.1,0.9c-3.1,4.7-6.2,9.5-9.5,14.2c-1.3,1.8-1.3,3.4-0.4,5.2c0.8,1.8,2.1,2.5,4.1,2.5c10.5,0.3,21.1,0.8,31.6,1.2
		c0,7,2.1,13.3,6.5,18.3c3.4,3.7,7.6,6.6,11.4,9.8c-0.3,0.2-0.6,0.4-0.9,0.4c-3.9,0.4-7.7,0.6-11.6,1.2c-2.4,0.3-4.7,1.2-7,1.8
		c0,0.4,0,0.7-0.1,1.1c1.3,0.6,2.5,1.6,3.8,1.7c6.4,0.9,12.8,1.8,19.3,2.2c6.7,0.4,13.5,0.1,20.2,0c5.1-0.1,10.2-0.1,15.3-0.6
		c3.9-0.4,7.8-1.4,11.6-2.2c0.7-0.1,1.2-1.1,1.8-1.6c-0.6-0.5-1.2-1.2-1.9-1.4c-4.5-0.8-14-2.2-14-2.2v-1.5c0,0,2.1-1,2.9-1.6
		c7.2-5.3,12.2-12.2,13.1-21.9c0.1-0.2,0.1-0.3,0.2-0.5c0.1-0.2,0.2-0.4,0.3-0.6c3.5,0,7,0,10.5,0.1c1.4,0.1,2.7,0.3,4.1,0.4
		c2.7,0.2,4.4-0.9,4.9-3.9c0.1-0.5,0.7-0.9,1-1.3c1.5,0.1,2.9,0.2,4.4,0.2c-0.7,0.6-1.4,1.3-2.2,2c-0.1-0.2-0.2-0.6-0.4-0.9
		c-0.1-0.3-0.4-0.5-1-1.3c-0.2,1.6-0.4,2.5-0.4,3.5c0,15.7,0,31.5,0,47.2c0,6.7-5.1,13.4-11.2,14.6c-1.9,0.4-3.9,0.6-5.9,0.6
		c-67.3,0-134.6,0-201.9,0c-10.6,0-16.5-7.5-16.3-17.5c0.2-6.5,0-13.1,0-19.6c1.5,0,3,0,4.5,0c0.4,0.3,0.8,0.9,1.2,1
		c1.9,0.1,3.7,0.1,5.6,0c0.4,0,0.8-0.6,1.2-1c3.9-0.4,7.8-0.7,11.7-1.1c2.8-0.3,5.8-0.3,8.4-1.2c4.3-1.5,8.4-3.5,12.5-5.4
		c4.2-1.9,7.2-5.4,10.1-9c0.9-1.1,1.8-2.5,1.9-3.9c0.4-4.6,0.5-9.2,0.6-13.8c0-3.1-0.3-6.1-0.5-9.2c-0.1-1.6,0.4-2.4,2-2.1
		c2.7,0.5,5.5,0.8,8.2,1.7c2.6,0.9,4.9-0.1,6.7-1.3c2.4-1.7,4-4.5,6-6.8c0.6-0.6,1.4-1.4,2.1-1.4c2,0.1,4.2,0.2,6.1,0.9
		c6.7,2.4,12.2-0.2,14.5-7.2c0.1-0.4,0.2-1,0-1.2c-0.2-0.3-0.7-0.4-1.1-0.3c-1.3,0.3-2.7,0.6-4,1c-3.2,1-6.4,2.6-9.2-1
		c-0.1-0.1-0.3-0.1-0.5-0.1c-2.8-0.5-5.5,0.3-8,1.7c-2.8,1.6-5.3,3.7-8.1,5.2c-2.1,1.1-4.4,1.1-6.6,0c-3.3-1.7-6.6-3.6-10-5.3
		c-2.3-1.2-4.5-1.2-6.2,1.1c-0.9,1.3-1.6,2.8-2.4,4.1c-0.3,0.5-0.8,1-1.3,1.5c-0.4-0.6-0.9-1.1-1.1-1.8c-1.1-2.6-2.2-5.2-4.6-6.9
		c-4.6-3.2-9-2.2-13.4,0.1c-2.5,1.3-5,2.8-7.6,4.3c0-0.6-0.2-0.9-0.1-1.2c1-3,2-6,3.1-9c1.7-4.8,0.4-9.3-0.7-13.9
		c-0.9-3.6-2.9-6.4-4.8-9.3c-2.3-3.4-5.5-6-9.7-5.6C241.3,431.8,239.2,433,237.1,433.7z M376.5,151.8c6.3-1.5,12.6-4.3,16.3,4.1
		c0.2-0.3,0.4-0.4,0.4-0.6c0.1-0.6,0.1-1.2,0.2-1.8c1.1-5.6,2.9-10.8,8.3-13.4c4.3-2.1,9-1.6,11.7,1.6c3.1,3.6,5,7.9,5.8,12.8
		c0.6,3.4,1.1,6.9,1.7,10.4c1.8-1.5,3.4-2.9,5.1-4.2c3.3-2.5,7.5-2.5,9.5,0.4c1.9,2.7,3.7,5.6,4.8,8.8c0.9,2.7,2.5,3.9,4.7,4.7
		c1.8,0.7,3.6,1.5,5.4,2.2c1.2,0.4,2.3,0.4,2.8-1.2c0.6-1.9,1.3-3.8,1.8-5.7c0.9-3.5,2.3-7,2.3-10.5c0.1-5-0.7-10-1.5-15
		c-1.1-6.9-4.6-12.6-8.9-17.7c-4.5-5.4-9.8-9.6-16.5-11.7c-4.7-1.5-9.4-3.1-14.3-2.9c-1.9,0.1-3.9,0.7-5.8,1c-5.8,0.7-11.1,3-16,6.4
		c-6.5,4.5-11.2,10.7-14.4,18.1C378.2,141.9,376.8,146.5,376.5,151.8z M246.1,192h81c-3.4-1.9-6.9-3.4-10.4-4.9
		c-0.7-0.3-1.3-0.9-1.7-1.6c-1-1.8-1.8-3.7-2.8-5.5c-2.2-4.1-5.1-4.7-8.6-1.8c-0.9,0.8-2,1.4-3.2,2.2c-0.2-1-0.2-1.6-0.3-2
		c-1.3-4.2-2.2-8.8-4.2-12.6c-2.2-4.3-8.2-5-11.3-1.2c-2,2.4-3.1,5.6-4.7,8.7c-1-0.7-2.1-2-3.5-2.3c-6.3-1.4-13.8,2.2-13.5,10.7
		c0.1,1.9-0.6,2.8-2.3,3.5c-4.9,2.1-9.8,4.5-14.6,6.8C246,191.8,246,191.8,246.1,192z M449.7,181c-21.7,0-43.3,0-65.1,0
		C400.9,205.8,434.9,203.9,449.7,181z"/>
	<path class="st1" d="M237.1,433.5c2.1-0.7,4.2-1.8,6.4-2c4.2-0.4,7.4,2.2,9.7,5.6c1.9,2.9,3.9,5.7,4.8,9.3
		c1.1,4.6,2.4,9.1,0.7,13.9c-1.1,3-2.1,6-3.1,9c-0.1,0.3,0,0.7,0.1,1.2c2.7-1.5,5.1-3,7.6-4.3c4.4-2.3,8.9-3.3,13.4-0.1
		c2.4,1.7,3.5,4.3,4.6,6.9c0.3,0.6,0.8,1.2,1.1,1.8c0.4-0.5,0.9-0.9,1.3-1.5c0.8-1.4,1.5-2.9,2.4-4.1c1.7-2.3,3.9-2.3,6.2-1.1
		c3.3,1.7,6.6,3.6,10,5.3c2.2,1.1,4.6,1.1,6.6,0c2.8-1.5,5.3-3.6,8.1-5.2c2.4-1.4,5.1-2.2,8-1.7c0.2,0,0.4,0,0.5,0.1
		c2.7,3.7,6,2,9.2,1c1.3-0.4,2.6-0.7,4-1c0.3-0.1,0.9,0.1,1.1,0.3c0.2,0.3,0.2,0.9,0,1.2c-2.2,7-7.8,9.7-14.5,7.2
		c-1.9-0.7-4-0.8-6.1-0.9c-0.7,0-1.5,0.8-2.1,1.4c-2,2.3-3.7,5.1-6,6.8c-1.7,1.3-4.1,2.2-6.7,1.3c-2.6-0.9-5.4-1.2-8.2-1.7
		c-1.5-0.3-2.1,0.6-2,2.2c0.2,3,0.5,6,0.5,9c0,4.6-0.2,9.3-0.6,13.9c-0.1,1.3-1,2.8-1.9,3.9c-2.9,3.6-5.9,7.1-10.1,9
		c-4.1,1.9-8.2,3.9-12.5,5.4c-2.7,0.9-5.6,0.9-8.4,1.2c-2.6,0.3-5.2,0.5-7.8,0.7c-2.7,0.1-5.3,0.2-8,0.4c-2.8,0-5.6,0-8.3,0
		c-5.2,0.2-10.1-1.2-14.9-3c-4-1.5-8-2.9-12.1-4.3c-0.7-0.2-1.7,0-2.3,0.4c-5.1,3.7-10.4,6.7-16.8,5.7c-3.7-0.6-7.2-2.2-10.8-3.4
		c-0.6-0.2-1.2-0.8-1.8-0.7c-2.3,0.5-4.5,1.2-6.7,1.8c-1.9,0.5-3.8,1.1-5.7,1.3c-8.1,0.5-16.2,1.1-24.3,1c-5.2-0.1-10.5-1-15.6-2.1
		c-4.1-0.9-8-2.3-11.9-3.9c-3.8-1.6-7.6-3.5-11.1-5.7c-3.3-2.1-5.3-5.7-6.5-9.5c-0.8-2.6-1.3-5.5-1-8.2c0.3-2.9,0.4-6,2.9-8.3
		c1-0.9,1.4-2.4,2.3-3.3c4.5-4.7,9.8-7.8,16.6-7.8c1.1,0,2.2-0.2,3.3-0.5c4.7-1.4,8.6,0.8,12.6,2.4c1.5,0.6,2.1,0.3,2-1.3
		c-0.5-4.2-1.2-8.3-1.7-12.5c-0.2-2.2-0.6-4.5-0.1-6.6c0.9-4.8,1.5-9.7,3.8-14c2.9-5.5,7.1-9,12.7-10.8c3.3-1.1,6.6-2.6,9.9-2.9
		c3.8-0.4,7.8,0.4,11.7,0.7c0.6,0,1.1,0.1,1.7,0.1c5.6,0.1,10.7,2.2,15.9,3.8c5.3,1.7,9.6,5.3,14.3,8.2c0.8,0.5,1.6,1.3,2.1,2.2
		c2.2,3.2,4.3,6.5,6.3,9.9c0.5,0.8,0.6,1.9,0.9,2.9c0.2,0.5,0.3,1.3,0.6,1.5c0.4,0.2,1.1-0.1,1.5-0.5c2.3-2.7,4.5-5.5,6.7-8.4
		c1.7-2.2,3.1-4.6,4.7-6.9c1.5-2.1,3.1-4.3,4.9-6.2C233,436.9,235.1,435.3,237.1,433.5z"/>
	<path class="st2" d="M361.5,454.6c5.3-16.5,12.5-31.9,22.5-45.8c2.1-2.9,4.3-5.5,6.5-8.3c0.5,0.1,1,0.3,1.5,0.3
		c0.8,0,1.5-0.2,2.3-0.3c-0.2-0.7-0.4-1.5-0.7-2.2c-0.1-0.3-0.3-0.6-0.4-1c3.4-3.6,6.8-7.2,10.3-10.8c0.7,0.5,1.6,0.9,2,1.6
		c0.8,1.2,1.7,2.6,3,1.8c0.9-0.5,1.5-2.1,1.7-3.3c0.3-2.1,0.1-4.2,0.1-6.3c2-0.7,3.9-1.4,5.9-2.1c0.6,0.2,1.1,0.6,1.7,0.7
		c7.4,1.3,15,2.2,22.3,3.9c18.6,4.4,36.9,9.6,55,16c7.8,2.7,15.6,5.5,23.4,8.2c-0.2,0.4-0.3,0.8-0.5,1.2
		c-7.9,12.7-15.5,25.6-23.8,38c-3.1,4.7-3.6,8.6-1.7,13.7c2.4,6.2,4.2,12.8,6.2,19.2c0.8,0.4,1.7,1.1,2.5,1.1
		c29.9,0.1,59.8,0,89.7,0c1.3,0,2.6-0.1,4-0.1c3.4,0,6.9,0,10.3,0c0.4,0,0.9-0.1,1.2,0.1c2.4,1.9,3.4,0.4,4.4-1.7
		c3.6-7.4,7.3-14.8,10.8-22.2c5.5-11.5,10.9-23,16.4-34.4c1.1-2.4,1.8-4.6,1.1-7.3c-0.6-2.3-0.7-4.8-1.1-7.3
		c-1.4-10.1-2.8-20.1-4.3-30.2c-1-7.1-2.1-14.2-3.1-21.3c-1.3-9.2-2.4-18.4-3.9-27.6c-1-6.4-1.3-6.5-7.4-7.7c-0.1-3-1.2-4.9-4.2-5.2
		c-0.5-0.1-1-0.5-1.5-0.7c0.3-0.4,0.5-0.8,0.9-1.1c3.7-3.1,7.3-6.3,11.1-9.3c1.8-1.4,3.3-2.8,3.5-5.3c0.6,0.8,1.1,1.7,1.8,2.5
		c2.4,2.9,5.2,1.8,6.1-1c1.8-5.3,0.3-11.5-4-15.3c4.5-4.1,9-8.3,13.4-12.4c0.3,0.2,0.5,0.4,0.8,0.6c-0.2,2-0.3,3.9-0.5,5.9
		c-0.4,3.8-0.9,7.6-1.3,11.4c-0.1,0.5-0.1,1-0.2,1.6c-0.5,4.4-1,8.8-1.5,13.1c-0.6,3.9-1.2,4.2-4.4,2.3c-2.4-1.4-4.9-2.8-8.2-4.8
		c0.2,4.8,0.4,9,0.6,13.1c0.1,0.2,0.2,0.5,0.2,0.7c0,0,0,0.1,0,0.1c0.1,0.3,0.1,0.7,0.2,1c0.2,1.2,0.4,2.3,0.7,3.5
		c0.2,0.9,0.5,1.9,0.7,2.8c0.8,4.4,1.6,8.8,2.5,13.2c2.5,12.5,5.1,25,7.6,37.4c1.2,5.8,1.6,11.9,3.8,17.2c2.4,5.9,6.2,11.1,9.4,16.6
		c0.2,0.3,0.4,0.7,0.6,1c0.1,0.2,0.3,0.4,0.4,0.6c0,0,0,0,0,0c0.2,0.3,0.4,0.7,0.6,1c0.7,1.3,1.5,2.6,2.2,3.9
		c0.3,4.3,0.7,8.6,1,12.9c0.1,0.6,0.5,1.1,0.7,1.6c0.5,2.5,1.1,4.9,1.6,7.4c-1.9,2.3-3.8,4.7-5.7,6.9c-1.2,1.4-2.6,2.6-3.8,3.9
		c-0.7-3.1-1.4-6.3-2.3-10c-5.5,5.5-12.1,8.8-15.4,16.4c-4.9,10.9-10.5,21.4-15.7,32.1c-0.9,1.8-1.5,3.7-2.2,5.6
		c-2,5.6-5.3,7.9-10.8,7.7c-18.6-0.7-37.1-1.3-55.7-2c-7.1-0.3-14.2-0.6-21.3-0.9c-0.9,0-1.7,0.3-2.6,0.4c-2.7-0.3-5.4-0.7-8.1-0.8
		c-15.8-0.5-31.6-0.9-47.5-1.4c0-0.7,0-1.4,0.1-2.1c2.7-10.6,4.6-21.2,5.4-32.2c0.8-10.7,1-21.3-1.7-31.8
		c-1.8-7.1-4.9-13.5-10.4-18.2c-8.1-7-17.6-8.1-27.4-6.7c-8.4,1.3-16.3,4.8-23.3,9.8c-7.2,5.2-14.2,10.9-21,16.7
		c-3.6,3.1-6.6,6.9-9.8,10.4c-0.5,0.4-1.2,0.6-1.6,1.1c-6.4,7.8-12.8,15.5-19.1,23.3c-2.3,2.8-4.4,5.8-6.8,9.1
		c-0.1-0.9-0.2-1.3-0.2-1.8C358.6,466.8,360,460.7,361.5,454.6z"/>
	<path class="st3" d="M633,285.3c4.4,3.7,5.8,10,4,15.3c-1,2.8-3.7,3.9-6.1,1c-0.7-0.8-1.2-1.7-1.8-2.5c-0.9-1.9-1.7-3.7-2.6-5.6
		c-0.7-1,0.1-4.3-2.8-2c-0.5,0-1-0.1-1.5,0c-4.5,1.8-8.9,3.7-13.4,5.4c-6.7,2.5-13.2,0.9-19.6-1.3c-2.9-1-5.9-2.1-8.8-3
		c-0.4-0.1-0.9,0.6-1.4,0.9c-4.8-1.8-9.6-3.5-14.4-5.3c-1.3-1-2.6-2.3-4.1-3.1c-2.6-1.4-5.5-2.3-8-3.8c-4.6-2.7-9.4-5.4-13.6-8.7
		c-5-3.9-9.7-8.3-14.2-12.9c-2.3-2.3-4-5.4-5.7-8.4c-0.9-1.6-0.7-3.7-1.5-5.5c-0.9-2-0.9-4.5-1-6.7c-0.1-2.9,0.1-5.7,1.7-8.2
		c0.6-1,0.9-2.2,1.1-3.4c0.6-3,1.8-5.6,4.1-7.6c-1.6-1.4-1.4-2.4,0.6-4c2.5-2.1,4.9-4.3,7.3-6.5c0.4-0.4,0.6-1.2,0.9-1.7
		c0.3-0.4,0.7-0.8,1-1.2c0.3,0.1,0.7,0.1,0.9,0.3c5.2,5.5,11.6,8.9,18.3,11.7c1.9,0.8,5,1,4,4.7c-0.7,0.2-1.8,0.1-2.2,0.6
		c-1.8,2.6-3.7,5.2-5,8c-1.1,2.5-1.5,5.4-2.3,8.3c1,0.7,2.2,1.7,0.5,3.5c2.1,3,3.8,6.1,6,8.7c3.6,4.3,7.3,8.6,11.3,12.4
		c3.6,3.5,7.6,6.5,11.6,9.4c1.5,1.1,3,3.5,5.4,1.7c2.8,1.7,5.5,3.8,8.5,5.1c3.7,1.6,7.5,2.7,11.3,4c3.6,2.7,4.2-1.5,6.1-2.9
		c0.3,0.5,0.6,1.1,0.6,1c1.3-0.8,2.4-1.6,3.5-2c2.9-1.1,5.9-2,8.9-2.9c0.3-0.1,0.5-0.4,0.8-0.6c0.3,0,0.6,0,1,0c0.3,0.3,0.7,0.6,1,1
		C626.8,280.9,629.9,283.1,633,285.3z"/>
	<path class="st4" d="M654.5,448c1.3-1.3,2.6-2.5,3.8-3.9c2-2.3,3.8-4.6,5.7-6.9c1.5-0.5,3.1-1,4.6-1.6c2.2,0.1,4.5,0.1,6.6,0.5
		c9.1,1.7,15.1,8.1,19.6,16c4.8,8.4,8.1,17.6,9.3,27.5c0.1,0.5,0.9,0.9,1.4,1.3c0,0.2-0.1,0.4-0.1,0.6c-1,0-1.9,0-2.9,0.1
		c-3.5,0.7-7.1,1.4-10.6,2.1c-3.3,0.5-6.7,0.8-10,1.4c-5.5,0.9-10.9,1.8-16.3,2.8c-2.7,0.5-5.4,1.3-8.1,2c-3.2,0.4-6.4,0.8-9.6,1.3
		c-0.3,0-0.7,0-1,0c-0.5,0.1-1,0.2-1.5,0.4c-0.5,0.2-1,0.4-1.5,0.6c-1.9,0.2-3.8,0.2-5.6,0.6c-1.7,0.4-3.4,0.4-4.1-1.3
		c-0.5-1.3-0.6-3.2-0.1-4.4c5.5-12.7,11.5-25.2,19.2-36.6C653.9,449.6,654.1,448.8,654.5,448z"/>
	<path class="st2" d="M666.3,100.5c2.8,4.3,3.9,9.2,4.8,14.8c-13.5,0.9-26.9,1.9-40.5,2.8c0.4,1.1,0.6,1.8,0.8,2.5
		c-0.2,0.1-0.4,0.1-0.5,0.2l0.1-0.1c-0.5,0.8-1,1.5-1.5,2.3c-1.1-0.1-2.1-0.2-3.2-0.2c-11-0.5-21.8-2.1-32.1-6.5
		c-2.7-1.1-5-3.1-7.5-4.6c1.1-1.8,2.1-3.6,3.2-5.5c0.5-0.4,1-0.7,1.5-1.2c2.4-2.1,3.8-4.9,5.1-7.8c0.4-0.9,1.1-1.8,1.8-2.5
		c1.3-1.3,2.7-2.5,4.2-3.5c1.5-1,2.4-2.6,4.6-2.7c1.7-0.1,3.2-1.9,4.9-2.8c0.8-0.4,1.9-0.8,2.6-0.5c2.6,1.2,4.3-1.3,6.5-1.4
		c0,0,0.1-0.7,0.1-1c0.2,0,0.4,0,0.5,0c0.4,0.6,0.9,1.1,1.2,1.6c1.1-0.5,2-0.9,3-1.3c0.4-0.1,0.8-0.1,1.2-0.2c0,1.9,1,0.8,1.6,0.6
		c0.6-0.1,1.7-0.7,1.8-0.4c1.7,2.4,3.6,0.6,5.4,0.3c0.2,0.2,0.3,0.4,0.5,0.5c-0.4,0.5-0.9,1-1,1.2c1.6,0.5,3,1,4.5,1.3
		c0.8,0.1,1.7-0.3,2.5-0.4c1.5,0.5,2.4,2.2,4.5,1.8c1.2-0.3,2.8,1.5,4.3,2.2c4.8,2.5,9.3,5.9,13.9,8.9c0,0,0,0.1,0,0.1
		C665.6,99.5,666,100,666.3,100.5z"/>
	<path class="st5" d="M669.3,141.7c0.6,0.7,1.8,1.4,1.9,2.2c0.5,5.2,1.3,10.5,1,15.6c-0.3,5.1-1.7,10.1-2.9,15.1
		c-1.2,5.4-7.8,10.6-13.1,10.7c-6.4,0.1-12-2.4-17.5-5.6c-0.6-0.4-1.3-0.6-2-0.8c-1.4-1.1-2.8-2.1-4.1-3.3c-1.7-1.5-3.2-3.1-4.8-4.6
		c1.4-0.4,3.8,0.9,3.7-2.3c-0.1-6.1-0.1-12.2-0.2-18.3c1.5-0.1,2.9-0.1,4.4-0.2c6.1-0.4,12.3-0.6,18.4-1.2c2.7-0.3,5.7-0.8,7.8-2.3
		C664.3,145,666.4,142.7,669.3,141.7z"/>
	<path class="st2" d="M581.6,147.2c-0.4-1.8-0.8-3.6-1.1-5.4c0-0.1,0.1-0.1,0-0.2c0-0.1-0.1-0.3-0.1-0.4c-0.1-1.1-0.2-2.1-0.3-3.2
		c1.8-0.5,2.3-1.9,2.4-3.7c0.1-1.6,0.3-3.3,0.5-4.9c14.3,8,29.4,11.7,45.6,9.5c0,0.6,0.1,1.2,0,1.8c-1.1,9.9-2.2,19.9-3.3,29.7
		c0.5,0.2,0.9,0.4,1.3,0.6c-2.6,0.2-5.2,0.3-7.8,0.5c-0.8-0.3-1.6-0.7-2.4-1c-2-0.6-4-1.1-6-1.8c-3.2-1.1-6.3-2.4-9.4-3.7
		c-2.3-1.8-4.7-3.6-7-5.4c-0.2-0.3-0.3-0.6-0.5-0.9C589.6,154.9,585.6,151.1,581.6,147.2z"/>
	<path class="st6" d="M581.6,147.2c4,3.9,8,7.7,11.9,11.6c0.2,0.2,0.3,0.6,0.5,0.9c-3-0.7-6-1.4-9-2.1c-3.5-0.2-7.1-0.8-10.6-0.6
		c-2.7,0.1-5.3,1.1-8,1.7c-1.1-3.8-4.3-4.7-7.3-5.2c-5.5-0.9-10.8,0.4-15.6,3.4c-9.1,5.6-19,7.8-29.3,5.9c-5.4-1-10.3-3.7-14.8-7.2
		c-1.9-1.5-3.8-3-5.8-4.4c-2.5-1.8-3.6-4.5-2.9-7.7c0.2-0.7,0.7-1.6,1.3-1.8c3.2-1.4,4.1-4.2,4.7-7.4c0.4-2.7,0.8-5.3,1.1-8.1
		c1.9,3.8,3.6,7.6,5.7,11.1c5.9,10.3,15.8,14.5,26.3,12.4c6.4-1.3,12.7-3.4,19.2-4.4c5.8-0.9,11.7-1.4,17.2,1.7c1.7,0.9,3,2.5,4.7,4
		C573.5,147.6,577.2,146.4,581.6,147.2z"/>
	<path class="st4" d="M444.2,303.1c-0.1-0.3-0.2-0.8-0.4-0.9c-2.5-1.3-2.1-3.1-0.8-5c0.5,0,1.1-0.1,1.6-0.1c0.3,4.4,0.8,4.9,3.3,3.4
		c-1.6-3.6,2.3-5.1,2.7-8.2c0.3,0.5,0.7,1,1,1.4c0.3-0.1,0.6-0.2,0.8-0.3c-0.4-1.5-0.8-3-1.1-4.1c1-1.3,2-2.4,2.9-3.6
		c0.8-0.6,1.7-1.2,1.9-2c0.3-1,0-2.1,0-3.2c0-1.2-0.2-2.5,0.2-3.7c0.6-2.1,1.5-4.1,2.3-6.1c0.2-0.4,0.3-0.8,0.5-1.4
		c0.4,0.6,0.7,1.1,1.1,1.5c0.2-0.1,0.4-0.2,0.6-0.2c-0.3-0.9-0.5-1.9-0.8-2.8c0.2-0.4,0.9-1,0.9-1.7c0-2.2,0.4-3.6,2.4-2.8
		c0-1.5,0-2.8,0-4.2c-0.1-2.7,2.5-1,3.3-2.2c-3.6-3.5,0.5-6.2,0.5-9.3c0.6,0.4,1.1,0.7,1.2,0.8c0.3-1.6,0.6-3.1,0.9-4.6
		c0.2-1.1,0.4-2.1,0.7-3.2c0-0.1,0.1-0.2,0.2-0.3c0.3-0.6,0.6-1.1,0.9-1.7c0.8-1.5,1.6-3.1,2.3-4.6c5.4-7.8,10.5-15.8,16.2-23.2
		c9-11.9,19-22.7,31.2-31c1.2-0.2,2.5-0.4,3.7-0.6c0.8,0.2,1.7,0.8,2.4,0.5c1.3-0.4,2.5-1.3,3.6-2c0.8-0.5,1.4-1.3,2.1-1.9
		c0.7-0.7,1.7-1.2,2.6-1.5c2.1-0.8,4-2.7,6.4-0.8c0.3,0.2,0.8,0.2,0.8,0.3c1.9-1.8,2.8-4.3,5.8-4.2c1.6,0.1,3.7-0.4,2.9-3.2
		c1.7-0.5,3.3-0.9,4.9-1.4c0.5,1.3,0.9,2.4,1.3,3.5c-1.6,1.1-3.1,2.2-4.7,3.3c-0.8,0.1-1.6,0.3-2.4,0.4c-3,0.2-5.2,3.4-8.7,3.2
		c0,0.2-0.2,0.9-0.4,1.6c-2.9-0.4-5.3,0.5-7.2,2.5c-0.4,0.4-0.7,0.9-1.1,1.3c-0.3-0.6-0.7-1.1-0.7-1.1c-1.1,0.7-2.2,1.6-3.4,2.3
		c-2,1.2-4.7,1.1-6.1,3.6c-0.2,0.4-0.8,0.7-1.2,0.9c-2.7,0.9-5.1,2.3-7,4.7c-0.3,0.4-1.2,0.8-1.5,0.6c-2.4-1.5-3,1.2-4.4,2.1
		c-2.3,1.5-4.7,2.9-5.1,6.2c0,0-0.1,0.1-0.2,0.1c-3.2-0.1-4.3,2.3-5.2,5.1c-0.8-0.3-1.4-0.5-2.3-0.8c0.1,1.3,0.2,2.3,0.3,3.3
		c-0.2-0.1-0.4-0.2-0.6-0.3c-0.6,1.1-1.2,2.1-1.8,3.2l0,0c-2.7,0.1-2.6,0.1-3,2.8c-0.1,0.4-0.9,0.8-1,0.9c-0.7,1.2-1.2,2.2-1.8,3.1
		c-0.4,0.6-0.9,1.1-1.3,1.7c-1.1,1.5-2.3,3-3.1,4.6c-0.9,1.7-3.4,2.8-1.9,5.6c0.1,0.2-0.6,1.2-1.1,1.6c-0.7,0.7-2.1,1-1.4,2.6
		c0.1,0.2-0.4,0.6-0.6,0.9c-0.6,0.9-1.3,1.8-1.9,2.7c-0.2,0.4,0,1-0.2,1.4c-0.4,0.8-0.9,1.6-1.7,2.7c0.1,0-0.3,0-0.4,0
		c-0.8,2.3-0.6,4.9-2.8,6.3c-1,0.7-1,1.3,0.3,1.7l0,0c-0.7,1.4-1.1,3.2-2.1,4.2c-1.5,1.4-1.7,3.1-1.8,4.9c-0.1,0.8-0.2,1.6-0.5,2.2
		c-1.4,2.5-2.8,5-4.2,7.6c-0.2,0.4,0,1-0.1,1.5c-0.5,2.2-0.8,4.4-1.6,6.5c-0.8,2.1-2.1,3.9-3.1,5.9c-0.1,0.2,0,0.6,0,1
		c0,1.7,0.7,4.2-0.1,5c-1.8,2-3,4.1-3.8,6.7c-0.5,1.7-1.5,3.2-2.4,4.6c-0.5,0.8-0.8,1.2-0.1,2.3c0.2,0.4-1,1.8-1.6,2.8
		c0-0.3,0.1-0.5,0.1-0.8c-1.9-0.3-3.8-0.6-5.7-0.9C444.5,303.1,444.4,303.2,444.2,303.1z M479.9,228.2c-0.2,0.3-0.3,0.5-0.4,0.7
		c0.1,0.1,0.3,0.3,0.4,0.2c0.2-0.1,0.4-0.3,0.5-0.4C480.2,228.6,480.1,228.4,479.9,228.2z M456.6,286.9c-0.1,0-0.1-0.1-0.2-0.1
		c0,0,0,0.1-0.1,0.2c0.1,0,0.1,0.1,0.2,0.1C456.5,287.1,456.6,286.9,456.6,286.9z"/>
	<path class="st7" d="M582,276c-2.4,1.8-3.9-0.6-5.4-1.7c-4-2.9-8-5.9-11.6-9.4c-4-3.9-7.7-8.1-11.3-12.4c-2.2-2.6-4-5.7-6-8.7
		c1.7-1.8,0.5-2.8-0.5-3.5c0.8-3,1.1-5.8,2.3-8.3c1.3-2.9,3.2-5.5,5-8c0.4-0.5,1.5-0.4,2.2-0.6c0.9-3.8-2.2-3.9-4-4.7
		c-6.7-2.8-13.1-6.2-18.3-11.7c-0.2-0.2-0.6-0.2-0.9-0.3c0-0.2,0-0.3,0-0.5c-0.1-2.3,1.5-2.9,3-3.7c0.5,0.3,0.9,0.7,1.4,1
		c3.4,2.6,6.6,5.4,10.2,7.6c5.1,3.1,10.2,6.2,16,7.7c3.8,1,7.5,2.7,11.3,4c-2.7,2.5-5.5,4.9-8.1,7.5c-3.5,3.5-6.9,7-10.3,10.6
		c-1.4,1.5-2.2,3.3-0.6,5.4c3.5,4.7,6.8,9.6,10.3,14.4C571.6,265.7,576.8,270.9,582,276z"/>
	<path class="st8" d="M566.4,260.6c-3.4-4.8-6.8-9.6-10.3-14.4c-1.5-2.1-0.8-3.9,0.6-5.4c3.4-3.6,6.8-7.1,10.3-10.6
		c2.6-2.6,5.4-5,8.1-7.5c1.2,0.3,2.4,0.5,3.6,1c2.5,1,4,0.1,5.6-2c5.1-6.9,10.2-13.9,15.9-20.2c5.6-6.2,7.9-13,6.5-21.4
		c1.1,2.5,2.1,5,3.2,7.5c0.1,0.4,0.2,0.9,0.4,1.3c1.1,2.5,0.5,4.2-1.3,6.2C591.4,214.3,577.2,236.2,566.4,260.6z"/>
	<path class="st3" d="M669.3,141.7c-2.9,1-5,3.3-7.5,5c-2.1,1.5-5.1,2-7.8,2.3c-6.1,0.6-12.2,0.8-18.4,1.2c0.6-0.9,1.2-1.8,1.5-2.2
		c-0.4-1.1-1.1-2-0.9-2.5c0.5-1.6,1.4-3.1,2.1-4.6c1.8-3.7,6.7-4.2,7.8-8.9c0.4-1.8,3-2.9,4.6-4.5c1.2-1.2,2.2-2.5,3.3-3.7
		c0.7-0.7,1.4-1.4,2.1-2.1c0.1-0.1,0.2-0.3,0.4-0.4c0.5-0.8,1-1.5,1.5-2.3c0.3,0.2,0.5,0.4,0.8,0.5c0.4,1.4,0.7,2.8,1.2,4.2
		c0.2,0.7,0.7,1.2,1,1.9c0.5-0.6,1.2-1.1,1.4-1.9c0.4-1.2,0.4-2.4,0.6-3.7c0.2,0,0.5-0.1,0.7-0.1c0.8,2,1.8,3.9,2.4,5.9
		c0.5,1.9,1.1,2.9,3,1.4c0.4,1.4,0.7,2.6,1,3.7c-0.2,1.8-0.5,3.5-0.6,5.3C669.3,138.1,669.3,139.9,669.3,141.7z M658.6,137
		c-1.3-1.5-2.2-2.5-3-3.4c-0.7,1.1-1.7,2.2-2,3.4c-0.1,0.6,1.2,2.2,1.7,2.1C656.3,139,657.1,138,658.6,137z"/>
	<path class="st9" d="M630.8,138.2c-17.3,2.9-33.4-1.1-48.6-9.9c-0.4-1.2-0.7-2.1-1.1-3.3c0.2-0.5,0.4-1,0.6-1.5
		c-0.1,0-0.6-0.3-1-0.5c0.3-0.6,0.6-1.2,0.9-1.8c-0.6-0.3-1.2-0.6-2.2-1.1c0.3-1.4,0.7-3.4,1.1-5.3c1.5,0.7,2.9,1.5,4.4,2.2
		c3.2,1.4,6.3,3.1,9.5,4.3c9.9,3.7,20.2,4.8,30.7,5.3c-4.3,2.3-8.5,4.6-12.8,6.9c0,0.2,0,0.2,0.1,0.4c4.3,0.4,8.6,0.8,12.9,1.2h5.7
		v2.9C630.9,138,630.9,138.1,630.8,138.2z M583,118.9c-1-0.5-1.8-0.9-2.6-1.3C580.4,119.8,580.4,119.8,583,118.9z"/>
	<path class="st10" d="M702.6,481.5c1,0,1.9,0,2.9-0.1c10.5,24-7,50.3-32.1,48.2c-11.5-1-20.1-7.3-26-17.9c-0.1-0.2-0.3-0.4-0.4-0.5
		l0,0c-1-3-1.9-6-2.9-9.1c0-3.3-0.1-6.7-0.1-10c0.5-0.2,1-0.4,1.5-0.6c0.5-0.1,1-0.2,1.5-0.4c0.3,0,0.7,0,1,0
		c-0.1,5.7-0.2,11.4,2.2,16.8c6.6,15.4,23.6,22,38.1,15c13.4-6.5,20-23.7,14-38.7C702,483.6,702.5,482.5,702.6,481.5z"/>
	<path class="st11" d="M705.6,480.9c-0.5-0.4-1.4-0.8-1.4-1.3c-1.2-9.9-4.5-19.1-9.3-27.5c-4.5-7.9-10.5-14.3-19.6-16
		c-2.2-0.4-4.4-0.3-6.6-0.5c5.1-3.3,10.6-4.1,16.4-3.2c10.1,1.5,16.4,8.5,21.2,17.3c4.1,7.5,6.7,15.7,8.6,24.1
		c0.9,4,0.1,5.3-3.6,6.2C709.4,480.4,707.5,480.6,705.6,480.9z M706.2,468.7c2.9,0,4.8-2,4.1-3.7c-2.1-5.2-4.3-10.3-6.5-15.4
		c-0.9-2-2.3-1.3-3.7-0.5c-1.5,0.8-2.3,1.6-1.5,3.5c2,4.7,3.9,9.5,6,14.2C704.9,467.7,705.9,468.3,706.2,468.7z M696.8,441.1
		c-2.5,0.1-4.5,1.8-4,3.2c0.5,1.4,1.4,3.2,2.6,3.5c1.7,0.6,4.1-1.5,3.7-2.7C698.6,443.5,698.6,441.2,696.8,441.1z"/>
	<path class="st12" d="M624.9,135.4c-4.3-0.4-8.6-0.8-12.9-1.2c0-0.2,0.1-0.3,0.1-0.5c4.2-2.3,8.4-4.5,12.6-6.8
		c1.1-0.9,2.2-1.8,3.3-2.6c0.5-0.4,1-0.9,1.5-1.3c0.5-0.8,1-1.5,1.5-2.3c0,0-0.1,0.1-0.1,0.1c0.2-0.1,0.3-0.1,0.5-0.2
		c9.9-0.6,19.8-1.1,29.7-1.7c2.7-0.2,5.4-0.4,8.2-0.4c0.6,0,1.5,0.2,1.7,0.6c1.5,3.4,2.7,6.8,1.4,10.7c-0.5,1.3-1.1,1.9-2.4,1.2
		c-0.3-1.1-0.6-2.3-1-3.7c-1.9,1.5-2.5,0.6-3-1.4c-0.5-2-1.5-4-2.4-5.9c-0.2,0-0.5,0.1-0.7,0.1c-0.2,1.2-0.3,2.5-0.6,3.7
		c-0.2,0.7-0.9,1.2-1.4,1.9c-0.3-0.6-0.8-1.2-1-1.9c-0.5-1.4-0.8-2.8-1.2-4.2c-0.3-0.2-0.5-0.4-0.8-0.5c-0.5,0.8-1,1.5-1.5,2.3
		c-0.1,0.1-0.2,0.3-0.4,0.4c-0.7,0.7-1.4,1.4-2.1,2.1c-0.6,0.3-1.1,0.7-1.7,1c-4.3,2.5-8.6,5.1-13,7.5
		C634.8,134.7,629.7,134.5,624.9,135.4z"/>
	<path class="st9" d="M656.9,408.8c-3.2-5.5-7.1-10.7-9.4-16.6c-2.1-5.3-2.6-11.4-3.8-17.2c-2.5-12.5-5.1-25-7.6-37.4
		c-0.9-4.4-1.7-8.8-2.5-13.2c1.3-0.4,2.6-0.7,3.9-1.1c0.4,0.5,0.9,1,1,1.6c1.4,6.9,2.7,13.9,4,20.9c1.8,8.9,3.6,17.9,5.5,26.7
		c2.2,10.2,4.3,20.5,10.5,29.1c1.2,1.6,1,3-0.3,4.4C657.7,406.8,657.4,407.9,656.9,408.8z"/>
	<path class="st13" d="M589.8,106.2c-1.1,1.8-2.1,3.6-3.2,5.5c-1.5-1.1-3.1-2.2-4.7-3.3c1.9-7.5,6-13.5,11.4-18.5
		c8-7.3,17.5-10.6,27.8-11.8c2.6-0.3,5.2-0.7,7.8-1c7.4-0.9,13.9,2.2,20.2,5.7c6,3.3,11.2,7.7,15.1,13.8c0.4,0.7,0.6,1.5,0.9,2.3
		c-4.6-3-9-6.4-13.9-8.9c-1.4-0.7-3-2.5-4.3-2.2c-2.1,0.4-3-1.2-4.5-1.8c-1.8-1.5-3.3-3.8-6-2c-0.2-0.2-0.3-0.4-0.5-0.5
		c0.2-0.8,0.4-1.6,0.7-2.7c-2.2,1.5-6.9,0.1-7.5-1.4c-1,0.3-1.9,0.6-2.8,0.9c-1.7,0.5-4-0.1-4.7,2.6c-0.2,0-0.4,0-0.5,0
		c-1-2.7-3.8-1.6-5-2.5c-1.9,1.3-3.4,2.6-5.2,3.4c-2.4,1.1-5.1,1.7-7.4,2.9c-1.1,0.5-1.7,2-2.5,3c-0.5-0.8-0.9-1.6-1.7-2.8
		c-0.3,2.2,0.5,4.1-1.5,4.7c-1.3,0.4-2.5,0.9-3.9,1.5c0.2,0.7,0.6,1.7,1,2.8c-0.9,0.6-1.9,1.1-3,1.8c0.6,0.5,1,0.9,1.5,1.4
		c-0.7,0.8-1.4,1.6-2.1,2.4c0,0,0,0,0,0c-0.6-0.5-1.2-1-1.8-1.5C587.6,101.8,587.7,104.5,589.8,106.2z"/>
	<path class="st6" d="M610,187.5c-1.1-2.5-2.1-5-3.2-7.5c-1.3-3.6-2.6-7.1-3.9-10.7c-0.6-1.5-1.2-2.9-1.9-4.3
		c3.1,1.2,6.3,2.5,9.4,3.7c2,0.7,4,1.2,6,1.8c0.8,0.3,1.6,0.7,2.4,1c1.3,3.9,2.6,7.8,3.8,11.7c-1.5,3.1-3.8,4.6-7.1,4.3
		C613.8,187.4,611.9,187.5,610,187.5z"/>
	<path class="st14" d="M472.8,495.2c15.8,0.5,31.6,0.9,47.5,1.4c2.7,0.1,5.4,0.5,8.1,0.8c-0.4,2.8-2,3.8-4.5,3.7
		c-14.8-0.5-29.6-1-44.4-1.4c-1.1,0-2.1,0-3.2,0c-1.5-0.1-2.9-0.2-4.4-0.2c0.2-1.1,0.3-2.3,0.5-3.4
		C472.5,495.8,472.7,495.5,472.8,495.2C472.8,495.2,472.8,495.2,472.8,495.2z"/>
	<path class="st11" d="M557.2,168.8c-0.4-1.1-0.8-2.2-1.3-3.5c-1.7,0.5-3.2,0.9-4.9,1.4c0.8,2.7-1.3,3.2-2.9,3.2
		c-3-0.1-3.9,2.5-5.8,4.2c-0.1,0-0.5,0-0.8-0.3c-2.4-1.9-4.3,0-6.4,0.8c-1,0.4-1.9,0.8-2.6,1.5c-0.7,0.6-1.4,1.4-2.1,1.9
		c-1.1,0.8-2.3,1.6-3.6,2c-0.7,0.2-1.6-0.3-2.4-0.5c-1.2,0.2-2.5,0.4-3.7,0.6c3.5-2.5,6.8-5.2,10.5-7.3c10.2-6,21.1-10.4,32.6-12.9
		c1-0.2,1.9-0.7,2.8-1c2.7-0.6,5.3-1.6,8-1.7c3.5-0.2,7.1,0.4,10.6,0.6c-0.2,0.1-0.4,0.4-0.6,0.4c-5.8-0.4-11.3,0.6-16.3,3.7
		C564.4,163.9,560.8,166.4,557.2,168.8z"/>
	<path class="st15" d="M662.4,429.8c-0.3-0.5-0.7-1-0.7-1.6c-0.4-4.3-0.7-8.6-1-12.9c4.2-1.7,8.5-3.3,12.7-5
		c0.6,0.1,1.2,0.1,1.6,0.2c-0.2,1.5-0.5,2.9-0.5,4.2c0.2,2.6,0.8,5.2,0.8,7.8c0,2.3,0.4,4.2,2,5.8
		C672.3,428.8,667.4,429.3,662.4,429.8z"/>
	<path class="st16" d="M644.2,502.1c1,3,1.9,6,2.9,9.1c-8.2-0.2-16.5-0.4-24.7-3.7c2.2-3.2,5.1-3.2,7.7-3.6
		C634.7,503,639.5,502.7,644.2,502.1z"/>
	<path class="st7" d="M622.7,183.2c-1.3-3.9-2.6-7.8-3.8-11.7c2.6-0.2,5.2-0.3,7.8-0.5c0.4,0,0.7,0,1.1,0.1c1.6,1.5,3.2,3.1,4.8,4.6
		c1.3,1.2,2.8,2.2,4.1,3.3c-3.2,1.1-6.5,2.1-9.8,3.1C625.6,182.5,624.1,182.8,622.7,183.2z"/>
	<path class="st17" d="M643.8,305.6c0.5-4.4,1-8.8,1.5-13.1c0.1-0.5,0.1-1,0.2-1.6c0.4-3.8,0.9-7.6,1.3-11.4
		c0.9,1.9,1.9,3.7,2.8,5.6c-0.3,2.2-0.9,4.4-0.9,6.6c0,1.4,0.6,2.7,0.9,4.1C648.6,299.7,646.7,303,643.8,305.6z"/>
	<path class="st18" d="M621.7,277.7c-0.3,0.2-0.5,0.5-0.8,0.6c-3,1-6,1.9-8.9,2.9c-1.1,0.4-2.2,1.2-3.5,2c0,0-0.3-0.5-0.6-1
		c-1.8,1.4-2.5,5.6-6.1,2.9c0.4-0.7,0.7-1.6,1.2-2.2c0.6-0.7,1.6-1,2.1-1.8c2.5-3.3,6.2-4.3,9.7-5.5
		C617.3,274.9,619.7,276.2,621.7,277.7z"/>
	<path class="st19" d="M582,108.3c1.6,1.1,3.1,2.2,4.7,3.3c2.5,1.6,4.9,3.5,7.5,4.7c10.3,4.4,21.1,6,32.1,6.5c1.1,0,2.1,0.1,3.2,0.2
		c-0.5,0.4-1,0.9-1.5,1.3c-1.5-0.2-2.9-0.4-4.4-0.5c-4.3-0.5-8.6-0.7-12.8-1.5c-8.7-1.5-17.1-4.1-24.7-8.8c-1.5-1.2-3-2.4-4.5-3.6
		C581.7,109.4,581.8,108.9,582,108.3z"/>
	<path class="st20" d="M677.2,428.3c-1.6-1.6-1.9-3.6-2-5.8c0-2.6-0.6-5.2-0.8-7.8c-0.1-1.3,0.3-2.6,0.5-4.2c-0.3,0-0.9-0.1-1.6-0.2
		c0.8-0.4,1.6-0.9,2.8-1.5c0.4,4.8,0.7,8.9,1.1,13c0.2,1.7,0.6,3.4,0.8,5C678.1,427.3,677.5,427.8,677.2,428.3z"/>
	<path class="st11" d="M580,127.2c1,0.7,2,1.5,3.1,2.2c-0.2,1.6-0.4,3.3-0.5,4.9c-0.1,1.8-0.6,3.2-2.4,3.7c-0.3-3.4-0.7-6.8-1-10.2
		C579.2,127.7,579.7,127.4,580,127.2z"/>
	<path class="st13" d="M581.5,109.9c1.5,1.2,3,2.4,4.5,3.6c-0.5,1.3-1,2.6-1.5,3.9c-1.5-0.7-2.9-1.5-4.4-2.2
		C580.6,113.4,581.1,111.7,581.5,109.9z"/>
	<path class="st6" d="M649.5,295.7c-0.3-1.4-1-2.7-0.9-4.1c0.1-2.2,0.6-4.4,0.9-6.6C651,287.3,651,293.5,649.5,295.7z"/>
	<path class="st11" d="M637.6,323.3c-1.3,0.4-2.6,0.7-3.9,1.1c-0.2-0.9-0.5-1.9-0.7-2.8c0.9,0.3,1.9,0.4,2.8,0.8
		C636.3,322.5,636.9,322.9,637.6,323.3z"/>
	<path class="st13" d="M666.3,100.5c-0.4-0.5-0.7-1-1.1-1.5C665.6,99.5,666,100,666.3,100.5z"/>
	<path class="st18" d="M623.7,278.7c-0.3-0.3-0.7-0.6-1-1C623,278.1,623.4,278.4,623.7,278.7z"/>
	<path class="st9" d="M658.5,411.4c-0.2-0.3-0.4-0.7-0.6-1C658.1,410.7,658.3,411.1,658.5,411.4z"/>
	<path class="st11" d="M632.2,318c-0.1-0.3-0.1-0.7-0.2-1C632.1,317.4,632.2,317.7,632.2,318z"/>
	<path class="st11" d="M580.4,141.2c0,0.1,0.1,0.3,0.1,0.4c0,0.1,0,0.1,0,0.2c-0.1-0.1-0.2-0.3-0.2-0.4
		C580.3,141.4,580.4,141.3,580.4,141.2z"/>
	<path class="st11" d="M632,317c-0.1-0.2-0.2-0.5-0.2-0.7C631.9,316.5,632,316.7,632,317z"/>
	<path class="st9" d="M657.9,410.4c-0.1-0.2-0.3-0.4-0.4-0.6C657.6,410,657.8,410.2,657.9,410.4z"/>
	<path class="st16" d="M647,511.2c0.1,0.2,0.3,0.4,0.4,0.5C647.3,511.5,647.2,511.4,647,511.2z"/>
	<path class="st4" d="M357.1,472.9c0.1,0.4,0.1,0.8,0.2,1.8c2.4-3.2,4.5-6.2,6.8-9.1c6.3-7.8,12.7-15.6,19.1-23.3
		c0.4-0.5,1.1-0.8,1.6-1.1c0.6-0.3,1.4-0.6,1.9-1.1c9.2-8.3,18.7-16.2,30-21.2c8.2-3.6,16.5-5.7,25.5-4.4
		c12.3,1.9,20.3,9.4,24.6,21.6c3.7,10.6,3.9,21.7,2.9,32.6c-0.9,10.6-3.3,21.1-4.9,31.6c-0.3,2-0.9,3.4-2.8,3.9c-3.5,0-7,0-10.5-0.1
		c-0.1,0-0.3,0-0.4,0.1c-1-0.1-2-0.2-3-0.3c-0.3,0-0.6,0-1,0c-3.4-0.1-6.7-0.1-10.1-0.2c-5.1-0.1-10.1-0.2-15.2-0.4
		c-0.5-0.2-1-0.6-1.5-0.6c-3.9-0.1-7.7-0.1-11.6-0.1c-2.4,0-4.8-0.1-7.1-0.1c-2.3,0-4.7,0-7-0.1c-3.3-0.3-6.7-0.5-10-0.8
		c-1.4,0-2.7,0-4.1,0c-10.5-0.4-21.1-0.9-31.6-1.2c-2-0.1-3.3-0.7-4.1-2.5c-0.8-1.8-0.8-3.4,0.4-5.2c3.3-4.6,6.4-9.4,9.5-14.2
		c0.1-0.2,0.1-0.6,0.1-0.9C356.6,476.7,356.5,474.6,357.1,472.9z M416,474C416,474,416,474,416,474c5,0,9.9,0,14.9-0.1
		c2.5,0,4.2-1.7,4.2-3.6c0-2.2-2.9-4-6-3c-8,2.5-16.5,3-24.6,0.7c-3.9-1.1-6.6-0.5-6.5,2.8c0,2.1,1.3,3.1,3.2,3.1
		C406.1,474,411,474,416,474z M416,485.2C416,485.2,416,485.2,416,485.2c4.9,0,9.8,0,14.6,0c2.6,0,4.4-1.4,4.5-3.4
		c0-2.3-1.4-3.5-4.3-3.4c-9.8,0.1-19.6,0.3-29.5,0.5c-2.1,0-3.4,1-3.4,3.3c0,2.3,1.4,3.2,3.4,3.2C406.2,485.2,411.1,485.2,416,485.2
		z"/>
	<path class="st14" d="M444.2,303.1c0.2,0,0.3,0,0.4-0.2c1.8,1.1,3.6,2.3,5.5,3.4c7.8,4.5,15.8,8.2,24.4,10.9
		c6.5,2,12.9,3.8,19.7,4.1c1.1,0.3,2.2,0.8,3.3,0.8c14.2,0.7,28.3,0.1,42.1-4.3c4.4-1.4,8.7-3.3,13-4.9c5.4,1.5,10.8,2.8,16,4.4
		c6,1.9,11.8,4.5,16.9,8.5c4,3.1,6.2,7.2,4.5,12.4c-2.1,6.5-4.1,13.2-7.4,19c-9.5,16.8-19.7,33-29.5,49.6
		c-5.2,8.9-10,18.1-14.9,27.1c-0.1,0.2-0.2,0.5-0.3,0.7l0,0.1c-0.7,0-1.4,0.2-2,0.1c-1.9-0.4-3.7-0.9-5.5-1.3c1.6,1.1,3.3,1.6,5,2.3
		c0.6,0.3,1.1,1,1.6,1.5c-0.7,2.2-1.5,4.4-2.3,6.8c-2.4-0.3-4.7-0.7-7.1-1c-3.8-1.6-7.6-3.2-11.5-4.7c-1.7-1.4-3.4-2.7-5-4.1
		c12.7-26.5,26.2-52.1,37-79.7c-3.6-0.4-6.7-0.9-9.9-1.1c-2.9-0.2-5.8-0.1-8.7-0.1c-2.2-0.5-4.5-1.3-6.7-1.5
		c-8.8-0.5-17.6-0.8-26.4-1.1c-0.6,0-1.1-0.2-1.7-0.2c-4.4-0.6-8.8-1-13.1-1.9c-6.8-1.4-13.7-2.7-20.3-5c-4.9-1.7-9.3-5.1-13.9-7.7
		c-4.1-5.3-6.2-11.6-6.9-18.3c-0.3-2.5,0.6-5.2,1.3-7.7C442.4,307.7,443.4,305.4,444.2,303.1z M529.5,430c0.2,0.1,0.3,0.2,0.5,0.3
		c0.2-0.2,0.5-0.4,0.6-0.7c2.5-4.6,5-9.3,7.6-14c6.2-11.5,12.4-22.9,18.6-34.4c5.8-10.8,11.7-21.5,17.4-32.4
		c2.7-5.2,1.5-8.3-3.8-9.9c-9.8-2.9-19.5-5.8-29.3-8.7c-1.6-0.5-3.3-0.8-5-1.2c0.3,0.6,0.6,0.9,1,1c10.9,3.3,21.7,6.8,32.6,9.8
		c4.2,1.1,5.3,4.7,3,8.8c-5.8,10.3-11.2,20.8-16.8,31.2c-7.2,13.6-14.5,27.1-21.7,40.7C532.5,423.7,531,426.9,529.5,430z"/>
	<path class="st21" d="M408.3,245h3.7v21.9c-1.1,0.1-2.3,0.2-3.8,0.3c0,35.1,0,70.1,0,105.1c0,1,0,1.9-0.1,2.9
		c-3.6,0-7.2,0.1-10.8,0.1c-1,0-2-0.1-3-0.1c-17.5,0-35.1,0-52.6,0c0-7.5,0-15,0-22.5c0-26.8,0-53.6,0-80.4c0,0,0-0.1,0-0.1
		c21.2,0,42.4,0,63.7,0c0.4,0,0.9,0.1,1.2-0.1c0.4-0.2,0.9-0.5,1-0.9c1-2.7-0.1-4.4-2.8-4.4c-19.7,0-39.5,0-59.2,0
		c0-7.1,0-14.1,0-21h28.8c0,4.5,0.2,8.9-0.1,13.2c-0.3,4.2,1.4,4.9,4.7,4.3c2-0.4,4.8,0.1,5.7-1.1c1-1.4,0.4-4.2,0.4-6.4
		c0-3.3,0-6.6,0-10.9H408.3z M376.8,330.7c6,0,12.1,0,18.1,0c1.8,0,2.5-0.6,2.5-2.6c-0.1-8.9-0.1-17.9,0-26.8c0-1.8-0.6-2.5-2.3-2.5
		c-12.1,0-24.1,0-36.2,0c-1.7,0-2.3,0.7-2.3,2.5c0.1,8.9,0.1,17.9,0,26.8c0,1.9,0.5,2.6,2.4,2.6
		C364.9,330.6,370.9,330.7,376.8,330.7z M363,372c3.7,0,7.4,0,11.1,0c6.5,0,6.4,0,6.4-7c0-1.9-0.6-2.4-2.3-2.4c-8.7,0.1-17.3,0-26,0
		c-6.7,0-6.6,0-6.5,7.1c0,1.8,0.6,2.3,2.2,2.2C352.9,372,358,372,363,372z"/>
	<path class="st22" d="M341.8,272.4c0,26.8,0,53.6,0,80.4c0,7.5,0,15,0,22.5c-11.9,0-23.9,0.1-35.8,0.1c-0.3-0.6-0.9-1.2-0.9-1.8
		c0-33.8,0-67.5,0-101.3C317.3,272.3,329.6,272.4,341.8,272.4z"/>
	<path class="st20" d="M376.5,151.8c0.3-5.3,1.7-9.9,3.6-14.2c3.2-7.4,7.9-13.6,14.4-18.1c4.9-3.3,10.1-5.7,16-6.4
		c2-0.2,3.9-0.9,5.8-1c5-0.2,9.6,1.4,14.3,2.9c6.7,2.1,12,6.3,16.5,11.7c4.3,5.1,7.7,10.8,8.9,17.7c0.8,4.9,1.5,10,1.5,15
		c0,3.5-1.4,7-2.3,10.5c-0.5,1.9-1.2,3.8-1.8,5.7c-0.5,1.6-1.7,1.6-2.8,1.2c-1.8-0.7-3.6-1.5-5.4-2.2c-2.3-0.8-3.8-2.1-4.7-4.7
		c-1.1-3.1-3-6-4.8-8.8c-2-2.9-6.3-2.9-9.5-0.4c-1.7,1.3-3.3,2.8-5.1,4.2c-0.6-3.5-1.1-6.9-1.7-10.4c-0.8-4.8-2.8-9.1-5.8-12.8
		c-2.7-3.2-7.5-3.7-11.7-1.6c-5.4,2.6-7.2,7.8-8.3,13.4c-0.1,0.6-0.1,1.2-0.2,1.8c0,0.1-0.2,0.3-0.4,0.6
		C389.1,147.5,382.8,150.4,376.5,151.8z"/>
	<path class="st8" d="M518.2,407.6c-7.8-2.7-15.6-5.5-23.4-8.2c-18.1-6.4-36.4-11.6-55-16c-7.4-1.7-14.9-2.6-22.3-3.9
		c-0.6-0.1-1.2-0.5-1.7-0.7c-0.1-0.6-0.2-1.2-0.3-1.8c3.3-2.9,4.3-3.7,7.6-6.5c1.5,0.5,2.9,1.3,4.5,1.6c2.5,0.6,5.1,0.7,7.5,1.4
		c4.9,1.5,9.8,3.3,14.7,4.7c3.4,1,6.9,1.8,10.4,2.6c0-0.3,0-0.7-0.1-1.4c1.6,1,2.9,1.8,4.2,2.6l1.6-1.3c1.4,0.1,2.3,0.2,3.3,0.3
		c0.2,0.4,0.4,1,0.4,1.2c1.2,0,2.2-0.3,2.9,0.1c0.8,0.4,1.3,1.5,2,2.3c0.2-0.5,0.5-1.1,0.6-1.4c1.1,0.8,2.1,1.6,3.2,2.3
		c-0.4-1.9,1.6-5.5,3.4-5.7c1.7-0.2,3.4,0,5.3,0c0.1,0.3,0.3,1.1,0.4,1.5h6c-0.2,0.9-0.4,1.6-0.5,2.4c0.7,0.4,1.3,0.7,2,1.1v-4
		c1.5,0.6,2.6,1.1,3.7,1.6c0.1,0,0.1,0.1,0.2,0.1c-0.1,0-0.1-0.1-0.2-0.1c0.1-0.8,0.1-1.6,0.2-2.7c1.8,2,3.4,3,5.8,2.7
		c1.8-0.2,3.8,0.6,6.2,1c0.1-1.2,0.3-2.7,0.4-4.1c1.2,0.7,2.4,1.4,3.7,2.1c-0.2,0.8-0.5,1.8-0.8,2.9c0.8-0.2,1.3-0.3,1.9-0.4
		c0.2,0.3,0.3,0.6,0.5,0.8c0.1-0.1,0.2-0.2,0.3-0.3c-0.3-0.2-0.5-0.3-0.8-0.5c-0.2-2,1.4-1.8,2.7-1.3c0.8,0.3,1.5,0.9,1.9,1.6
		c0.4,0.7,0.6,1.5,1,2.2c0.9-0.3,1.5-0.8,2.2-0.8c2,0.2,4.1,1.4,5.9-0.5c0.2-0.2,0.9,0.3,1.3,0.5c-0.1,0.8,0,1.8-0.4,2.5
		C526.6,394.4,522.3,401,518.2,407.6z"/>
	<path class="st10" d="M447.4,336c4.6,2.6,9,6,13.9,7.7c6.6,2.3,13.5,3.6,20.3,5c4.3,0.9,8.8,1.3,13.1,1.9c0.6,0.1,1.1,0.2,1.7,0.2
		c8.8,0.4,17.6,0.6,26.4,1.1c2.3,0.1,4.5,1,6.7,1.5c2.3,0.4,4.7,0.8,7,1.3c3,0.6,3.9,2.4,3,5.8c-8.3-0.2-16.7-0.4-25-0.6
		c-5.1-0.1-10.2-0.3-15.2-0.5c-9.2-0.3-18.4-0.7-27.7-1.1c-2.9-0.1-5.8-0.3-8.6-0.6c-6-0.6-11.9-1.3-17.9-2
		c-5.2-0.7-10.4-1.4-15.6-2.2c-4.9-0.8-9.9-1.7-14.8-2.6c0.6-1,1.2-2.1,1.9-3.3c-0.6-0.3-1.1-0.5-1.2-0.6c-0.3-2.9-0.6-5.4-0.8-7.9
		c0-0.3-0.1-0.6-0.1-0.9c1.4,1.5,2,1.2,3.2,0.2c0.8-0.7,2.3-0.5,3.5-0.4c0.3,0,0.5,1.2,0.7,1.6c1.6-0.2,3.2-0.3,4.7-0.5
		c1.7-0.2,3.4-0.4,5-0.6c2.1-0.6,4.2-1.2,6.4-1.6c2.6-0.5,5.3-0.6,7.9-0.9C446.5,336,447,336,447.4,336z"/>
	<path class="st11" d="M461.9,504.3c1.9-0.5,2.5-1.9,2.8-3.9c1.6-10.6,4-21,4.9-31.6c1-10.9,0.7-22.1-2.9-32.6
		c-4.3-12.2-12.2-19.7-24.6-21.6c-9-1.4-17.3,0.7-25.5,4.4c-11.2,5-20.8,12.8-30,21.2c-0.5,0.5-1.3,0.7-1.9,1.1
		c3.3-3.5,6.2-7.3,9.8-10.4c6.8-5.8,13.8-11.5,21-16.7c7-5,14.9-8.6,23.3-9.8c9.8-1.5,19.3-0.4,27.4,6.7c5.4,4.7,8.6,11.1,10.4,18.2
		c2.7,10.5,2.4,21.1,1.7,31.8c-0.8,10.9-2.7,21.6-5.4,32.2c-0.2,0.7-0.1,1.4-0.1,2.1c0,0,0,0,0,0c-0.1,0.3-0.3,0.5-0.4,0.8
		c-0.2,1.1-0.3,2.3-0.5,3.4c-0.3,0.4-0.9,0.8-1,1.3c-0.5,3-2.2,4.1-4.9,3.9C464.6,504.6,463.3,504.4,461.9,504.3z"/>
	<path class="st23" d="M516.1,383.7c-0.5,0.1-1.1,0.2-1.9,0.4c0.3-1.1,0.6-2.1,0.8-2.9c-1.3-0.7-2.5-1.4-3.7-2.1
		c-0.1,1.4-0.3,2.9-0.4,4.1c-2.4-0.5-4.4-1.3-6.2-1c-2.4,0.3-4-0.6-5.8-2.7c-0.1,1.1-0.1,1.9-0.2,2.7l0,0c-1.1-0.5-2.2-0.9-3.7-1.6
		v4c-0.7-0.4-1.3-0.8-2-1.1c0.2-0.8,0.3-1.5,0.5-2.4h-6c-0.1-0.4-0.3-1.2-0.4-1.5c-2,0-3.7-0.1-5.3,0c-1.8,0.2-3.8,3.8-3.4,5.7
		c-1-0.8-2.1-1.5-3.2-2.3c-0.2,0.4-0.4,0.9-0.6,1.4c-0.7-0.8-1.2-1.9-2-2.3c-0.7-0.4-1.8-0.1-2.9-0.1c-0.1-0.2-0.3-0.7-0.4-1.2
		c-1-0.1-1.9-0.2-3.3-0.3l-1.6,1.3c-1.4-0.8-2.7-1.7-4.2-2.6c0,0.7,0.1,1.1,0.1,1.4c-3.6-0.9-7-1.6-10.4-2.6
		c-4.9-1.5-9.8-3.3-14.7-4.7c-2.4-0.7-5-0.9-7.5-1.4c-1.4-0.3-2.8-1-4.2-1.5c0-1.4,0-2.7,0-4.1c5.9,0.2,11.7,0.4,17.6,0.6
		c18.2,0.7,36.3,1.4,54.5,2c9.2,0.3,18.3,0.4,27.5,0.7c4.2,0.1,8.3,0.7,12.5,1c-0.8,3.1-1.5,6.2-2.4,9.3c-0.5,1.9-1.3,3.7-1.9,5.5
		c-0.5-0.2-1.2-0.6-1.3-0.5c-1.9,1.9-3.9,0.7-5.9,0.5c-0.6,0-1.3,0.5-2.2,0.8c-0.3-0.7-0.6-1.5-1-2.2c-0.4-0.7-1.1-1.3-1.9-1.6
		C517.6,381.9,516,381.7,516.1,383.7L516.1,383.7z M438.9,372.5c-0.1-0.1-0.3-0.2-0.4-0.2c-0.1,0-0.1,0.3-0.2,0.4
		c0.1,0.1,0.3,0.2,0.4,0.2C438.8,372.9,438.8,372.7,438.9,372.5z M490,378.3c-0.1-0.1-0.3-0.2-0.4-0.2c-0.1,0-0.2,0.3-0.2,0.4
		c0,0.1,0.3,0.2,0.4,0.2C489.9,378.7,490,378.5,490,378.3z M509.8,380.8c0-0.2,0.1-0.2,0.1-0.3c-0.1,0-0.1,0-0.2,0.1
		C509.7,380.6,509.7,380.7,509.8,380.8z"/>
	<path class="st24" d="M535.8,370.1c-4.2-0.3-8.3-0.9-12.5-1c-9.2-0.3-18.3-0.4-27.5-0.7c-18.2-0.6-36.3-1.3-54.5-2
		c-5.9-0.2-11.7-0.4-17.6-0.6c-4.6,0.7-6.3-2.5-7.5-6.4c-0.7-2.2-1.6-4.3-2.5-6.5c0.3-0.7,0.6-1.4,1-2.1c4.9,0.9,9.9,1.8,14.8,2.6
		c5.2,0.8,10.4,1.6,15.6,2.2c5.9,0.8,11.9,1.4,17.9,2c2.9,0.3,5.7,0.5,8.6,0.6c9.2,0.4,18.4,0.7,27.7,1.1c5.1,0.2,10.2,0.4,15.2,0.5
		c8.3,0.2,16.7,0.4,25,0.6c-0.4,1.2-0.6,2.5-1.1,3.7C537.6,366.2,536.7,368.2,535.8,370.1z"/>
	<path class="st25" d="M246.1,192c0-0.2,0-0.2-0.1-0.3c4.9-2.3,9.7-4.6,14.6-6.8c1.6-0.7,2.3-1.6,2.3-3.5
		c-0.2-8.5,7.2-12.1,13.5-10.7c1.3,0.3,2.4,1.6,3.5,2.3c1.6-3.1,2.7-6.2,4.7-8.7c3.1-3.7,9.1-3.1,11.3,1.2c2,3.9,2.8,8.4,4.2,12.6
		c0.1,0.5,0.2,1,0.3,2c1.2-0.8,2.3-1.4,3.2-2.2c3.5-2.9,6.4-2.3,8.6,1.8c1,1.8,1.8,3.7,2.8,5.5c0.4,0.7,1,1.3,1.7,1.6
		c3.5,1.6,7,3,10.4,4.9H246.1z"/>
	<path class="st20" d="M449.7,181c-14.8,22.9-48.8,24.8-65.1,0C406.4,181,428,181,449.7,181z"/>
	<path class="st22" d="M344.9,246.1c0,7,0,13.9,0,20.9c0,0-0.1,0.1-0.1,0.1c-13.4,0-26.8,0-40.1-0.1c-1.5,0-2.9,0-4.6,0v-21
		c5.3,0,10.6,0,15.9,0c0,4.7,0,9.4,0,14.1c0,2.8,0.8,3.6,3.5,3.7c1.3,0,2.6,0,3.9,0c2,0,2.9-1,2.9-3.2c-0.1-4.9,0-9.7,0-14.6
		c3.9,0,7.8,0,11.8-0.1C340.3,246,342.6,246.1,344.9,246.1z"/>
	<path class="st10" d="M447,504c0.3,0,0.6,0,1,0c1,0.5,2,0.9,3,1.4c-1,9.6-5.9,16.5-13.1,21.9c-0.7,0.5-1.5,1.1-2.3,1.6
		c-0.6,0.3-1.3,0.7-1.9,1c-11.8,5.7-23.5,5.5-35.3-0.1c-3.8-3.2-8.1-6.1-11.4-9.8c-4.5-5-6.5-11.3-6.5-18.3c1.4,0,2.7,0,4.1,0
		c1,3.7,1.6,7.6,3,11c2.7,6.5,7.7,11.2,13.6,14c8.6,4.2,17.8,4.9,26.9,1.2c5.1-2,9.6-4.9,13.1-9.5C444.3,514.2,446,509.2,447,504z"
		/>
	<path class="st16" d="M398.4,529.8c11.8,5.5,23.5,5.8,35.3,0.1c0.6,0.1,1.3,0.3,1.9,0.4c4.5,0.7,9,1.4,13.4,2.2
		c0.7,0.1,1.3,0.9,1.9,1.4c-0.6,0.6-1.1,1.5-1.8,1.6c-3.8,0.9-7.7,1.9-11.6,2.2c-5.1,0.5-10.2,0.5-15.3,0.6
		c-6.7,0.1-13.5,0.3-20.2,0c-6.5-0.3-12.9-1.3-19.3-2.2c-1.3-0.2-2.5-1.1-3.8-1.7c0-0.4,0-0.7,0.1-1.1c2.3-0.6,4.6-1.4,7-1.8
		c3.8-0.6,7.7-0.8,11.6-1.2C397.8,530.2,398.1,529.9,398.4,529.8z"/>
	<path class="st16" d="M415.7,375.8c0.1,0.8,0.3,1.7,0.4,2.5c-2,0.7-3.9,1.4-5.9,2.1c-0.5-0.4-1-1.3-1.6-1.3c-4,0-8,0.2-12,0.4
		c-0.5-0.1-0.9-0.4-1.4-0.4c-7,0.1-14.1,0.3-21.1,0.4c-0.7,0-1.4,0.3-2,0.5c-1.9-0.2-3.8-0.3-5.7-0.5c-16.4,0.2-32.9,0.3-49.3,0.5
		c-1.3,0-3.3,0.8-3.4-1.4c-0.1-2.3,2.1-1.7,3.4-1.8c8.2-0.2,16.5-0.4,24.7-0.6c17.7,0,35.3,0,53-0.1c0.8,0,1.7-0.6,2.5-0.9
		c3.6,0,7.2-0.1,10.8-0.1C410.7,375.5,413.2,375.6,415.7,375.8z"/>
	<path class="st15" d="M357.1,472.9c-0.7,1.7-0.5,3.8-2.4,4.8c-4.4,0.1-4.9-0.3-6.2-4.9c-1.3-5-2.7-10.1-3.7-15.2
		c-0.7-3.4,0-3.9,3.1-3.8c4.5,0.2,9,0.5,13.5,0.8C360,460.7,358.6,466.8,357.1,472.9z"/>
	<path class="st11" d="M469.7,240.9c-0.2,1.1-0.5,2.1-0.7,3.2c-0.3,1.5-0.6,3-0.9,4.6c-0.2-0.1-0.6-0.4-1.2-0.8c0,3.1-4,5.7-0.5,9.3
		c-0.8,1.1-3.3-0.5-3.3,2.2c0,1.3,0,2.7,0,4.2c-2-0.8-2.4,0.6-2.4,2.8c0,0.6-0.6,1.2-0.9,1.7c0.3,0.9,0.5,1.8,0.8,2.8
		c-0.2,0.1-0.4,0.2-0.6,0.2c-0.3-0.4-0.6-0.9-1.1-1.5c-0.2,0.6-0.4,1-0.5,1.4c-0.8,2-1.7,4-2.3,6.1c-0.3,1.1-0.1,2.4-0.2,3.7
		c0,1.1,0.3,2.2,0,3.2c-0.2,0.8-1.1,1.4-1.9,2c-0.9,1.2-1.9,2.3-2.9,3.6c0.3,1.2,0.7,2.6,1.1,4.1c-0.3,0.1-0.6,0.2-0.8,0.3
		c-0.3-0.5-0.6-0.9-1-1.4c-0.4,3-4.3,4.5-2.7,8.2c-2.5,1.5-2.9,1-3.3-3.4c-0.5,0-1.1,0.1-1.6,0.1c2.1-5.3,4-10.8,6.4-16
		c6.3-13.1,12.8-26.1,19.2-39.1C468.9,241.7,469.4,241.3,469.7,240.9z"/>
	<path class="st1" d="M345.8,246c-2.3-0.2-4.7-0.2-7-0.3c2.7-0.2,5.5-0.4,8.2-0.4c11.1,0,22.2,0,33.2,0c8-0.1,16-0.4,24-0.4
		c1.3,0,2.7,0.6,4,0.2h-22.9c0,4.3,0,7.6,0,10.9c0,2.2,0.6,5-0.4,6.4c-0.9,1.2-3.7,0.7-5.7,1.1c-3.4,0.7-5-0.1-4.7-4.3
		c0.3-4.3,0.1-8.6,0.1-13.2H345.8z"/>
	<path class="st6" d="M305,267c12.4,0,24.9,0,37.3,0.1c-0.2,1.7-0.3,3.5-0.5,5.2c0,0,0,0.1,0,0.1c-12.2,0-24.4,0-36.7-0.1
		C305.1,270.6,305,268.8,305,267z"/>
	<path class="st1" d="M326.9,245.8c0,4.9,0,9.9,0,14.8c0,2.2-0.9,3.3-3,3.2c-1.3,0-2.6,0-4,0c-2.7-0.1-3.5-0.9-3.5-3.7
		c0-4.8,0-9.5,0-14.3C320,245.8,323.4,245.8,326.9,245.8z"/>
	<path class="st26" d="M414.6,338.2c0,0.3,0.1,0.6,0.1,0.9c-0.6-0.3-1.2-0.7-1.6-0.9c-0.4,0.8-0.8,1.7-1.2,2.6
		c0-2.5-1.7-0.4-2.4-1.1c-0.1-6.3,4.2-10.6,9.7-9.5c8.8,1.7,17.5,3.6,26.2,5.4c0.2,0,0.4,0.2,0.6,0.4c-2.6,0.3-5.3,0.5-7.9,0.9
		c-2.1,0.4-4.2,1.1-6.4,1.6c0.6-2.8,0.3-2.9-2.4-2.6c-1.2,0.2-2.6-0.2-3.8-0.5c-0.9-0.3-1.7-1.4-2.6-1.5c-1.7-0.2-3.8-0.6-5.2,0.2
		C416.3,334.8,415.6,336.8,414.6,338.2z"/>
	<path class="st26" d="M366.4,379.6c1.9,0.2,3.8,0.3,5.7,0.5c3.9,3.3,7.7,6.5,11.6,9.8c3.1,2.6,6.3,5,9.4,7.5c0.1,0.3,0.3,0.6,0.4,1
		c0.2,0.7,0.5,1.5,0.7,2.2c-0.8,0.1-1.5,0.2-2.3,0.3c-0.5,0-1-0.2-1.5-0.3c-3-2.7-6-5.4-9.1-8c-4.4-3.8-9-7.5-13.4-11.2
		C367.3,380.8,366.9,380.2,366.4,379.6z"/>
	<path class="st20" d="M397.4,375.4c-0.8,0.3-1.7,0.9-2.5,0.9c-17.7,0.1-35.3,0.1-53,0.1c-0.9-0.2-1.9-0.5-2.8-0.5
		c-10.1,0-20.3,0-30.4-0.1c-0.9,0-1.7-0.3-2.6-0.4c11.9,0,23.9-0.1,35.8-0.1c17.5,0,35.1,0,52.6,0
		C395.4,375.3,396.4,375.3,397.4,375.4z"/>
	<path class="st14" d="M411.8,340.8c0.4-0.9,0.8-1.7,1.2-2.6c0.5,0.3,1,0.6,1.6,0.9c0.3,2.5,0.5,5,0.8,7.9c0.1,0,0.6,0.3,1.2,0.6
		c-0.7,1.2-1.3,2.2-1.9,3.3c-0.3,0.7-0.6,1.4-1,2.1c-0.3-0.9-0.7-1.8-1-2.6c0.1-0.2,0-0.3-0.1-0.4c-0.1-0.4-0.2-0.8-0.4-1.1
		c0.7-1.6-0.3-2.4-1.3-3.2c-0.1-0.3-0.3-0.7-0.4-1c0.3-1.1,0.5-2.1,0.8-3.2l0.1-0.1C411.5,341.1,411.6,341,411.8,340.8
		C411.7,340.8,411.8,340.8,411.8,340.8z"/>
	<path class="st25" d="M241.5,528.2c2.6,0,5.3,0,7.9,0c-0.4,0.3-0.8,0.9-1.2,1c-1.9,0.1-3.7,0.1-5.6,0
		C242.3,529.1,241.9,528.5,241.5,528.2z"/>
	<path class="st26" d="M411.2,341.4c-0.3,1.1-0.5,2.1-0.8,3.2c-0.3-1.1-0.7-2.1-1-3.2C410,341.4,410.6,341.4,411.2,341.4z"/>
	<path class="st14" d="M411.2,341.4c-0.6,0-1.2,0-1.8,0c0-0.5-0.1-1.1-0.1-1.6c0.7,0.6,2.4-1.4,2.4,1.1c0,0,0,0.1,0,0.1
		c-0.1,0.1-0.3,0.3-0.4,0.4L411.2,341.4z"/>
	<path class="st26" d="M410.9,345.6c1.1,0.8,2,1.6,1.3,3.2C411.8,347.7,411.4,346.6,410.9,345.6z"/>
	<path class="st27" d="M451,505.3c-1-0.5-2-0.9-3-1.4c1,0.1,2,0.2,3,0.3c0.1,0.2,0.1,0.4,0.2,0.5C451.1,505,451,505.2,451,505.3z"/>
	<path class="st25" d="M436,530.3c-0.6-0.1-1.3-0.3-1.9-0.4c0.6-0.3,1.3-0.7,1.9-1C436,529.3,436,529.8,436,530.3z"/>
	<path class="st11" d="M470.8,238.8c-0.3,0.6-0.6,1.1-0.9,1.7C470.2,240,470.5,239.4,470.8,238.8z"/>
	<path class="st26" d="M412.6,349.9c0.2,0.1,0.2,0.2,0.1,0.4c-0.1-0.1-0.1-0.2-0.2-0.3C412.5,350,412.6,349.9,412.6,349.9z"/>
	<path class="st11" d="M451.2,504.8c-0.1-0.2-0.1-0.4-0.2-0.5c0.1,0,0.3-0.1,0.4-0.1C451.3,504.4,451.2,504.6,451.2,504.8z"/>
	<path class="st25" d="M527.5,443.2c2.3,0.3,4.7,0.7,7.1,1c0.8-2.4,1.5-4.6,2.3-6.8c0.3-0.9,0.7-1.7,1-2.6c0,0,0-0.1,0-0.1
		c0.1-0.2,0.2-0.5,0.3-0.7c5-9.1,9.7-18.2,14.9-27.1c9.7-16.6,20-32.9,29.5-49.6c3.3-5.8,5.3-12.5,7.4-19c1.7-5.2-0.4-9.2-4.5-12.4
		c-5.1-4-10.9-6.6-16.9-8.5c-5.3-1.7-10.7-3-16-4.4c0.1-9.3,2-18.1,4.7-26.9c2.5,0.7,4.9,1.4,7.4,2.1c4.8,1.8,9.6,3.5,14.4,5.3
		c0.3,0,0.6,0.1,0.9,0.1c0.3,0.2,0.7,0.3,1,0.5c5.2,1.6,10.4,3.2,15.6,4.8c1.7,0.5,3.3,1.3,4.9,1.9c-2.8,1.5-0.9,3.3-0.2,5
		c0.5,1.4,0.9,2.8,1.4,4.1c-0.6,0.7-1.2,1.4-1.9,2.1c-3.4,3.7-2.9,9.2,1.2,12.2c0.6-0.5,1.2-0.9,1.7-1.4c3.3-2.7,6.7-5.4,10-8
		c0.5,0.3,1,0.7,1.5,0.7c3,0.3,4.1,2.2,4.2,5.2c-0.3,0.7-1,1.5-0.9,2.1c2.1,11.8,4.3,23.5,6.5,35.3c3.6,19.2,7.2,38.4,10.8,57.6
		c0.2,1,0,2.3-0.4,3.2c-2.7,5.7-5.6,11.4-8.4,17.1c-7.2,14.8-14.5,29.5-21.7,44.3c-3.4,0-6.9,0-10.3,0c-0.5-0.3-1-0.6-1.5-0.9l0,0
		c-0.2-0.2-0.4-0.3-0.6-0.5c-5.8-2-11.7-3.7-17.3-6.1c-8.6-3.6-17.3-5.6-26.5-4.3c-0.3-3.9-0.3-3.9-4-4c-0.2,0-0.5-0.1-0.7-0.1
		c-0.4-0.5-0.8-1.1-1.3-1.5c-4.8-3.8-9.6-7.6-14.4-11.4C525.6,449.2,525.3,446.5,527.5,443.2z"/>
	<path class="st25" d="M535.8,370.1c0.9-2,1.8-3.9,2.6-5.9c0.5-1.2,0.8-2.5,1.1-3.7c1-3.4,0.1-5.2-3-5.8c-2.3-0.5-4.7-0.8-7-1.3
		c2.9,0,5.8-0.1,8.7,0.1c3.1,0.2,6.2,0.6,9.9,1.1c-10.9,27.6-24.3,53.3-37,79.7c1.7,1.4,3.3,2.7,5,4.1c-0.7,0-1.7,0.3-1.9,0
		c-1.4-2-2.8-2.4-4.6-0.5c-0.3,0.3-1,0.3-1.3,0.6c-2,1.8-5.3,2.1-5.8,4.9c-1.2,0.4-2,0.6-2.8,0.9c-0.9,0.9-1.8,1.7-2.7,2.6
		c0.2,0.3,0.3,0.5,0.4,0.7c5.3,6.7,10.6,13.4,16,20.1c0.5,0.6,1.5,0.9,2.3,1c2.6,0.2,5.2,0.3,7.8,0.5c-3,0.1-5.9,0-8.9,0.2
		c-1.1,0.1-2.3,0.4-3.2,1c-4.1,2.9-8.1,6-12.1,9c-0.2-0.1-0.3-0.1-0.5,0c-2-6.4-3.8-12.9-6.2-19.2c-2-5.1-1.5-9.1,1.7-13.7
		c8.3-12.4,15.9-25.3,23.8-38c0.2-0.4,0.4-0.8,0.5-1.2c4.2-6.6,8.4-13.2,12.5-19.8c0.4-0.6,0.3-1.6,0.4-2.5c0.6-1.8,1.4-3.6,1.9-5.5
		C534.2,376.3,535,373.2,535.8,370.1z"/>
	<path class="st4" d="M605.2,480.3c7.2-14.8,14.5-29.5,21.7-44.3c2.8-5.7,5.7-11.4,8.4-17.1c0.4-0.9,0.6-2.2,0.4-3.2
		c-3.5-19.2-7.2-38.4-10.8-57.6c-2.2-11.8-4.4-23.5-6.5-35.3c-0.1-0.6,0.6-1.4,0.9-2.1c6.1,1.2,6.4,1.3,7.4,7.7
		c1.4,9.2,2.6,18.4,3.9,27.6c1,7.1,2.1,14.2,3.1,21.3c1.4,10.1,2.9,20.1,4.3,30.2c0.3,2.4,0.4,4.9,1.1,7.3c0.7,2.7,0.1,4.9-1.1,7.3
		c-5.5,11.4-10.9,23-16.4,34.4c-3.6,7.4-7.3,14.8-10.8,22.2c-1,2.1-2.1,3.7-4.4,1.7C606.2,480.2,605.7,480.3,605.2,480.3z"/>
	<path class="st24" d="M613.7,314.8c-3.3,2.7-6.7,5.4-10,8c-0.6,0.5-1.2,1-1.7,1.4c-4.1-3-4.6-8.5-1.2-12.2c0.6-0.7,1.3-1.4,1.9-2.1
		c3.1-2.6,6.3-5.2,9.4-7.9c3.6-2.9,7.1-5.8,10.7-8.6c1.3,0,2.6,0.1,3.8,0.1c0.9,1.9,1.7,3.7,2.6,5.6c-0.2,2.5-1.7,3.9-3.5,5.3
		c-3.8,3-7.4,6.2-11.1,9.3C614.2,313.9,614,314.4,613.7,314.8z"/>
	<path class="st0" d="M393.1,397.4c-3.1-2.5-6.3-5-9.4-7.5c-3.9-3.2-7.8-6.5-11.6-9.8c0.7-0.2,1.4-0.5,2-0.5
		c7-0.2,14.1-0.3,21.1-0.4c0.5,0,0.9,0.3,1.4,0.4c2.2,2.3,4.5,4.7,6.7,7C399.9,390.2,396.5,393.8,393.1,397.4z"/>
	<path class="st26" d="M403.4,386.6c-2.2-2.3-4.5-4.7-6.7-7c4-0.2,8-0.4,12-0.4c0.5,0,1,0.8,1.6,1.3c0,2.1,0.2,4.2-0.1,6.3
		c-0.2,1.2-0.8,2.8-1.7,3.3c-1.4,0.8-2.2-0.6-3-1.8C404.9,387.5,404,387.1,403.4,386.6z"/>
	<path class="st19" d="M498.8,479.3c0.2,0,0.3,0,0.5,0c0.8,0.1,1.6,0.4,2.4,0.4c29.7,0,59.4,0,89.1,0c0.9,0,1.8-0.2,2.7-0.3
		c0.5,0.3,1,0.6,1.5,0.9c-1.3,0-2.6,0.1-4,0.1c-29.9,0-59.8,0-89.7,0C500.5,480.3,499.6,479.6,498.8,479.3z"/>
	<path class="st18" d="M564.7,288.3c-2.5-0.7-4.9-1.4-7.4-2.1c-0.6-0.6-1.1-1.4-1.8-1.8c-3.6-1.9-7.3-3.7-10.9-5.6
		c-8.6-4.5-16.8-9.6-23.6-16.9c-5.7-6-10.1-12.6-10.8-21.4c0-1.1,0-2.1,0-3.2c0-0.4,0-0.7,0-1.1c0-0.4,0.1-0.7,0.1-1.1
		c0.9-3.5,1.7-6.9,2.6-10.4c0.3-0.6,0.6-1.2,0.9-1.9c3.9-9,8.8-17.3,14.9-24.7c1.6,2.6,3.3,5.2,4.9,7.8c0,0.2,0,0.3,0,0.5
		c-0.3,0.4-0.7,0.8-1,1.2c-0.4,0.5-0.5,1.3-0.9,1.7c-2.4,2.2-4.8,4.5-7.3,6.5c-2,1.6-2.2,2.6-0.6,4c-2.3,1.9-3.5,4.5-4.1,7.6
		c-0.2,1.2-0.5,2.5-1.1,3.4c-1.6,2.5-1.8,5.3-1.7,8.2c0.1,2.3,0.1,4.7,1,6.7c0.8,1.8,0.6,3.9,1.5,5.5c1.7,2.9,3.4,6,5.7,8.4
		c4.5,4.6,9.2,9,14.2,12.9c4.3,3.3,9,6,13.6,8.7c2.5,1.5,5.4,2.4,8,3.8C562.1,286,563.3,287.2,564.7,288.3z"/>
	<path class="st7" d="M622.8,293.4c-3.6,2.9-7.1,5.8-10.7,8.6c-0.4,0-0.8,0.1-1.3,0.1c-3.1-0.4-6.2-0.9-9.3-1.3
		c-1.6-0.6-3.3-1.4-4.9-1.9c-5.2-1.6-10.4-3.2-15.6-4.8c-0.3-0.2-0.7-0.3-1-0.5c-0.3,0-0.6-0.1-0.9-0.1c0.5-0.3,1.1-1,1.4-0.9
		c3,0.9,5.9,2,8.8,3c6.4,2.2,12.9,3.8,19.6,1.3c4.5-1.7,8.9-3.6,13.4-5.4c0.4-0.2,1,0,1.5,0C623.5,292.2,623.1,292.8,622.8,293.4z"
		/>
	<path class="st2" d="M622.8,293.4c0.4-0.6,0.7-1.3,1.1-1.9c2.8-2.3,2,1,2.7,2C625.3,293.5,624,293.5,622.8,293.4z"/>
	<path class="st27" d="M702.6,481.5c-0.1,0.9-0.6,2-0.3,2.8c6,14.9-0.6,32.2-14,38.7c-14.5,7-31.5,0.4-38.1-15
		c-2.3-5.4-2.3-11.1-2.2-16.8c3.2-0.4,6.4-0.8,9.6-1.3c-0.9,4.1-1.2,8.3,0.1,12.4c2,7.3,6.5,12,13.2,14.1c6.9,2.1,13.2,0.4,18.5-4.9
		c0.4-0.4,0.5-1,0.8-1.5c0.8-0.8,1.7-1.6,2.3-2.5c4.5-8,4.1-15.9-0.5-23.7C695.6,483,699.1,482.2,702.6,481.5z"/>
	<path class="st16" d="M692,483.7c4.6,7.8,4.9,15.7,0.5,23.7c-0.5,1-1.5,1.7-2.3,2.5c-1.3-0.6-2.7-1.3-4-1.9
		c3.4-3.9,5.9-8.1,5.4-13.9c-0.7,2.5-1.1,4.9-2.1,7.1c-1.3,3-2.9,5.9-6.3,6.9c-5.2-1.3-10.3-2.6-15.5-3.8c-3.3-0.8-6.7-1.3-10.1-2
		c-1.3-4.1-1-8.2-0.1-12.4c2.7-0.7,5.4-1.5,8.1-2c5.4-1,10.9-2,16.3-2.8C685.4,484.5,688.7,484.1,692,483.7z M676.2,503.4
		c3.8,0,6.6-3,6.6-7c0-4-2.8-7-6.6-7c-3.7,0-6.7,3.1-6.7,7C669.6,500.3,672.5,503.4,676.2,503.4z"/>
	<path class="st27" d="M647,491.1c-0.5,0.1-1,0.2-1.5,0.4C646.1,491.4,646.5,491.3,647,491.1z"/>
	<path class="st11" d="M589.8,106.2c-2.1-1.6-2.2-4.4-0.1-6.2c0.6,0.5,1.2,1,1.8,1.5c0.1,0,0.1,0.1,0.2,0.1c-0.1,0-0.1-0.1-0.2-0.1
		c0.7-0.8,1.4-1.6,2.1-2.4c-0.5-0.4-0.9-0.9-1.5-1.4c1.1-0.7,2.1-1.3,3-1.8c-0.4-1.1-0.8-2.2-1-2.8c1.4-0.5,2.6-1,3.9-1.5
		c2-0.7,1.2-2.5,1.5-4.7c0.8,1.3,1.2,2,1.7,2.8c0.8-1,1.4-2.5,2.5-3c2.4-1.2,5-1.8,7.4-2.9c1.8-0.8,3.3-2.2,5.2-3.4
		c1.1,0.9,3.9-0.2,5,2.5c0,0.3-0.1,1-0.1,1c-2.2,0.1-4,2.6-6.5,1.4c-0.7-0.3-1.8,0.1-2.6,0.5c-1.7,0.9-3.3,2.7-4.9,2.8
		c-2.2,0.1-3.2,1.7-4.6,2.7c-1.5,1-2.9,2.2-4.2,3.5c-0.7,0.7-1.4,1.6-1.8,2.5c-1.3,2.9-2.8,5.7-5.1,7.8
		C590.9,105.4,590.3,105.8,589.8,106.2z"/>
	<path class="st11" d="M621.7,82.8c0.7-2.7,3-2.1,4.7-2.6c0.9-0.3,1.8-0.6,2.8-0.9c0.6,1.5,5.3,2.9,7.5,1.4c-0.3,1.2-0.5,2-0.7,2.7
		c-1.8,0.3-3.7,2.1-5.4-0.3c-0.2-0.2-1.2,0.3-1.8,0.4c-0.6,0.1-1.6,1.3-1.6-0.6c-0.4,0.1-0.9,0.1-1.2,0.2c-1,0.4-2,0.8-3,1.3
		C622.6,83.9,622.2,83.4,621.7,82.8z"/>
	<path class="st4" d="M636.6,84c2.7-1.8,4.2,0.5,6,2c-0.8,0.2-1.7,0.6-2.5,0.4c-1.5-0.3-3-0.8-4.5-1.3C635.7,85,636.1,84.5,636.6,84
		z"/>
	<path class="st25" d="M630.9,120.8C630.9,120.8,631,120.7,630.9,120.8C631,120.7,630.9,120.8,630.9,120.8z"/>
	<path class="st7" d="M625.3,135c4.8-0.9,9.9-0.7,14.4-3.2c4.4-2.4,8.7-5,13-7.5c0.6-0.3,1.1-0.7,1.7-1c-1.1,1.2-2.1,2.6-3.3,3.7
		c-1.5,1.5-4.1,2.7-4.6,4.5c-1.1,4.7-6,5.2-7.8,8.9c-0.7,1.5-1.6,3-2.1,4.6c-0.2,0.5,0.5,1.4,0.9,2.5c-0.3,0.4-0.9,1.3-1.5,2.2
		c-1.5,0.1-2.9,0.1-4.4,0.2c0-1.5,0-2.9-0.1-4.4c-0.1-2.6-0.4-5.1-0.5-7.7c0-0.9,0-1.7,0-2.9C628.9,135,627.1,135,625.3,135z"/>
	<path class="st8" d="M630.6,138.3c0.2,2.6,0.4,5.1,0.5,7.7c0.1,1.5,0.1,2.9,0.1,4.4c0.1,6.1,0.1,12.2,0.2,18.3
		c0.1,3.3-2.3,1.9-3.7,2.3c-0.4,0-0.7,0-1.1-0.1c-0.4-0.2-0.8-0.4-1.3-0.6c1.1-9.8,2.2-19.7,3.3-29.7c0.1-0.6,0-1.2,0-1.8
		C629.3,138.7,630,138.5,630.6,138.3z"/>
	<path class="st9" d="M557.2,168.8c3.6-2.4,7.2-4.9,10.9-7.1c5.1-3.1,10.6-4,16.3-3.7c0.2,0,0.4-0.2,0.6-0.4c3,0.7,6,1.4,9,2.1
		c2.3,1.8,4.7,3.6,7,5.4c0.6,1.4,1.3,2.8,1.9,4.3c1.3,3.5,2.6,7.1,3.9,10.7c1.4,8.4-1,15.2-6.5,21.4c-5.7,6.3-10.8,13.3-15.9,20.2
		c-1.6,2.2-3.1,3.1-5.6,2c-1.1-0.5-2.4-0.6-3.6-1c-3.8-1.4-7.5-3-11.3-4c-5.8-1.5-10.9-4.6-16-7.7c-3.6-2.2-6.8-5-10.2-7.6
		c-0.5-0.3-0.9-0.7-1.4-1c-1.8-2.5-3.6-5-5.5-7.5c-1.5-2-0.7-3.4,1-4.8c6.9-5.9,13.8-11.9,20.7-17.9
		C554.1,171,555.6,169.9,557.2,168.8z"/>
	<path class="st2" d="M552.5,172.1c-6.9,6-13.7,12-20.7,17.9c-1.1,0.9-1.8,1.9-1.7,3c-0.6,1.6-1.4,3.9-2,5.5
		c-5.9,7.4-10.8,15.5-14.6,24.4c-0.3,0.6-0.6,1.2-0.9,1.9c-0.6,0.2-1.5,0.3-1.6,0.7c-1.1,3.3-2.2,6.6-3,10c-1.1,5-1.1,10.1,0.7,14.8
		c4.4,11.6,13.1,18.7,23,24.7c4.2,2.6,9.5,3.4,12.7,7.8c0.5,0.6,0.7,1.4,1.1,2.1c-0.7,0.3-1.5,0.5-2.2,0.8c-0.1,0-0.2,0.3-0.3,0.5
		c0.5,0.3,1,0.6,1.7,0.9c-2.5,0.9-4.2,2.1-3.6,5.2c-0.8-0.3-1.4-0.6-2-0.8c-1.7,3.8,2.9,2.3,3,3.9c-2,0.9-3.9,1.5-5.6,2.5
		c-2.2,1.3-2.8,3.4-2.4,6.1c-2.2-1.9-0.1-4.7-1.2-7.2c-0.6,0.7-1.6,1.4-1.5,1.9c0.6,2.8-1,3.7-3,4.2c-0.3,4.3-0.5,4.6-4.2,5
		c-0.6,0.1-1.4-1.5-2.3-2.4c-1.6,1.3-3.4,2.9-5.4,4.6c0,0,0.3,0.5,0.4,0.6c1.6-0.5,3-1,4.4-1.5c0.1,0.3,0.3,0.7,0.4,1
		c-0.8,0.5-1.6,1.1-2.3,1.6c-1.6,1.1-4.4,1.1-3.8,4.4c0,0.1-0.9,0.3-1.3,0.5c0.2-0.2,0.3-0.5,0.5-0.7c-0.9-1.5-1.8-3.1-2.7-4.6
		c-1.7,1.2-3,2-4.3,2.9l2,1.9c-0.1,0.3-0.1,0.3-0.2,0.6h-4.2c-0.8,1.6-1.3,2.6-2,4c-0.8-1.3-1.2-2-1.7-2.8c-1.1,3.9-1.9,4.2-4.9,2.4
		c-1.2-0.7-2.2-0.8-2.9,0.7c-6.7-0.4-13.2-2.2-19.7-4.1c-8.5-2.6-16.6-6.3-24.4-10.9c-1.8-1.1-3.7-2.2-5.5-3.4
		c1.9,0.3,3.8,0.6,5.7,0.9c0,0.3-0.1,0.5-0.1,0.8c0.6-1,1.8-2.4,1.6-2.8c-0.7-1-0.4-1.4,0.1-2.3c0.9-1.5,1.9-3,2.4-4.6
		c0.8-2.6,2-4.7,3.8-6.7c0.8-0.9,0.1-3.3,0.1-5c0-0.3-0.1-0.7,0-1c1-2,2.3-3.8,3.1-5.9c0.8-2.1,1.1-4.3,1.6-6.5
		c0.1-0.5-0.1-1.1,0.1-1.5c1.4-2.5,2.8-5,4.2-7.6c0.3-0.6,0.5-1.5,0.5-2.2c0.1-1.8,0.3-3.5,1.8-4.9c1-1,1.5-2.7,2.1-4.2
		c0-0.1,0.1-0.1,0.1-0.2c0,0.1-0.1,0.1-0.1,0.2c-1.3-0.4-1.3-1-0.3-1.7c2.2-1.5,2-4,2.8-6.3c0.1,0,0.6,0,0.4,0
		c0.7-1.2,1.3-1.9,1.7-2.7c0.2-0.4,0-1,0.2-1.4c0.5-0.9,1.2-1.8,1.9-2.7c0.2-0.3,0.7-0.7,0.6-0.9c-0.6-1.6,0.7-1.9,1.4-2.6
		c0.5-0.5,1.2-1.4,1.1-1.6c-1.5-2.7,1-3.9,1.9-5.6c0.8-1.7,2-3.1,3.1-4.6c0.4-0.6,0.9-1.1,1.3-1.7c0.6-0.9,1.1-1.9,1.8-3.1
		c0.1-0.1,1-0.4,1-0.9c0.3-2.7,0.3-2.7,3-2.8c0.1,0,0.1,0.1,0.2,0.1l-0.2-0.1c1-2.1,0.5-1.2,1.5-3.3l0.9,0.3c-0.1-1-0.2-2-0.3-3.3
		c0.9,0.3,1.5,0.5,2.3,0.8c0.8-2.8,2-5.2,5.2-5.1c0.1,0,0.2,0,0.2-0.1c0.4-3.3,2.8-4.7,5.1-6.2c1.4-0.9,2-3.6,4.4-2.1
		c0.3,0.2,1.2-0.2,1.5-0.6c1.9-2.3,4.3-3.8,7-4.7c0.5-0.2,1-0.6,1.3-1c1.4-2.4,4.1-2.2,6-3.4c1.2-0.7,2.4-1.6,3.4-2.3
		c0,0,0.4,0.6,0.7,1.1c0.4-0.4,0.7-0.9,1.1-1.3c2-2,4.3-2.9,7.2-2.5l0.4-1.6c3.5,0.2,5.7-2.9,8.7-3.2
		C550.9,172.5,551.7,172.3,552.5,172.1z M536.9,179.5c-0.2,0.1-0.3,0.2-0.5,0.4C536.5,179.7,536.7,179.6,536.9,179.5
		c0-0.1,0.1-0.1,0.1-0.2C536.9,179.3,536.9,179.4,536.9,179.5z"/>
	<path class="st2" d="M479.9,228.2c0.2,0.2,0.4,0.3,0.5,0.5c-0.2,0.2-0.3,0.4-0.5,0.4c-0.1,0-0.3-0.1-0.4-0.2
		C479.6,228.7,479.7,228.5,479.9,228.2z"/>
	<path class="st2" d="M456.6,286.9c0,0.1,0,0.2-0.1,0.2c-0.1,0-0.1,0-0.2-0.1c0-0.1,0-0.2,0.1-0.2
		C456.5,286.8,456.5,286.9,456.6,286.9z"/>
	<path class="st3" d="M528.4,198.2c0.8-1.1,1.6-2.3,2.5-3.4c1.8,2.5,3.6,5,5.5,7.5c-1.5,0.8-3.1,1.4-3,3.7
		C531.7,203.4,530.1,200.8,528.4,198.2z"/>
	<path class="st24" d="M658.6,137c-1.4,1-2.3,2-3.2,2.1c-0.6,0-1.9-1.5-1.7-2.1c0.3-1.2,1.3-2.3,2-3.4
		C656.4,134.5,657.2,135.4,658.6,137z"/>
	<path class="st7" d="M656.1,121.6c0.1-0.1,0.2-0.3,0.4-0.4C656.3,121.4,656.2,121.5,656.1,121.6z"/>
	<path class="st2" d="M584.5,117.4c0.5-1.3,1-2.6,1.5-3.9c7.7,4.7,16.1,7.3,24.7,8.8c4.2,0.7,8.5,1,12.8,1.5
		c1.5,0.2,2.9,0.4,4.4,0.5c-1.1,0.9-2.2,1.8-3.3,2.6c-10.4-0.4-20.7-1.5-30.7-5.3C590.8,120.4,587.7,118.8,584.5,117.4z"/>
	<path class="st25" d="M583,118.9c-2.5,0.9-2.6,0.9-2.6-1.3C581.2,118,582,118.4,583,118.9z"/>
	<path class="st19" d="M706.2,468.7c-0.4-0.4-1.3-1-1.7-2c-2.1-4.7-4-9.5-6-14.2c-0.8-1.9,0.1-2.7,1.5-3.5c1.4-0.8,2.9-1.5,3.7,0.5
		c2.2,5.1,4.4,10.2,6.5,15.4C711,466.8,709.1,468.7,706.2,468.7z"/>
	<path class="st19" d="M696.8,441.1c1.9,0.1,1.8,2.4,2.3,4c0.4,1.3-2,3.3-3.7,2.7c-1.1-0.4-2.1-2.2-2.6-3.5
		C692.3,442.9,694.3,441.2,696.8,441.1z"/>
	<path class="st2" d="M472.4,496.1c0.1-0.3,0.3-0.5,0.4-0.8C472.7,495.5,472.5,495.8,472.4,496.1z"/>
	<path class="st27" d="M447,504c-1.1,5.3-2.7,10.2-6,14.5c-3.5,4.6-8,7.5-13.1,9.5c-9.1,3.7-18.2,3-26.9-1.2
		c-5.9-2.8-10.9-7.5-13.6-14c-1.4-3.5-2-7.3-3-11c3.3,0.3,6.7,0.5,10,0.8c1.1,10,6.7,15.8,15.4,18.4c12.1,3.6,25.5-4,27-17.2
		C440.3,503.9,443.7,503.9,447,504z"/>
	<path class="st28" d="M437,503.8c-1.5,13.2-14.9,20.8-27,17.2c-8.7-2.6-14.3-8.5-15.4-18.4c2.3,0,4.7,0,7,0.1
		c2.4,0,4.8,0.1,7.1,0.1c0.5,4.1,2.8,6.7,6.3,6.8c3.5,0.2,6.1-2.2,6.8-6.1C426.9,503.6,431.9,503.7,437,503.8z"/>
	<path class="st2" d="M416,474c-5,0-9.9,0-14.9,0c-2,0-3.2-0.9-3.2-3.1c-0.1-3.3,2.6-3.9,6.5-2.8c8.1,2.3,16.6,1.7,24.6-0.7
		c3.1-1,6,0.8,6,3c0,1.9-1.7,3.5-4.2,3.6C425.9,474.1,421,474,416,474C416,474,416,474,416,474z"/>
	<path class="st2" d="M416,485.2c-4.9,0-9.8,0-14.6,0c-2.1,0-3.4-0.8-3.4-3.2c0-2.3,1.3-3.2,3.4-3.3c9.8-0.2,19.6-0.4,29.5-0.5
		c2.9,0,4.4,1.1,4.3,3.4c0,2-1.8,3.4-4.5,3.4C425.8,485.2,420.9,485.2,416,485.2C416,485.2,416,485.2,416,485.2z"/>
	<path class="st14" d="M421.8,503.4c-0.8,4-3.4,6.3-6.8,6.1c-3.4-0.2-5.8-2.7-6.3-6.8c3.9,0,7.7,0,11.6,0.1
		C420.8,502.9,421.3,503.2,421.8,503.4z"/>
	<path class="st8" d="M494.1,321.4c0.7-1.5,1.7-1.4,2.9-0.7c3,1.8,3.8,1.4,4.9-2.4c0.5,0.8,0.9,1.5,1.7,2.8c0.7-1.4,1.2-2.4,2-4
		c0.9,0,2.5,0,4.2,0c0.1-0.2,0.1-0.4,0.2-0.6c-0.6-0.6-1.2-1.1-2-1.8c1.3-0.9,2.6-1.7,4.3-2.9c0.9,1.5,1.8,3,2.7,4.6
		c-0.2,0.2-0.3,0.5-0.5,0.7c0.5-0.2,1.3-0.4,1.3-0.5c-0.6-3.3,2.2-3.3,3.8-4.4c0.8-0.6,1.6-1.1,2.3-1.6c-0.1-0.3-0.3-0.7-0.4-1
		c-1.4,0.5-2.9,1-4.4,1.5c-0.1-0.1-0.4-0.7-0.4-0.6c2-1.7,3.8-3.3,5.4-4.6c0.9,1,1.7,2.5,2.3,2.4c3.7-0.4,3.8-0.7,4.2-5
		c2-0.5,3.6-1.4,3-4.2c-0.1-0.4,0.9-1.2,1.5-1.9c1.1,2.5-1,5.2,1.2,7.2c-0.4-2.7,0.2-4.8,2.4-6.1c1.7-1,3.6-1.6,5.6-2.5
		c-0.2-1.5-4.7-0.1-3-3.9c0.6,0.2,1.1,0.5,2,0.8c-0.6-3.1,1.1-4.3,3.6-5.2c-0.7-0.4-1.2-0.7-1.7-0.9c0.1-0.2,0.2-0.4,0.3-0.5
		c0.7-0.3,1.5-0.5,2.2-0.8c-0.4-0.7-0.6-1.5-1.1-2.1c-3.2-4.4-8.4-5.3-12.7-7.8c-9.9-5.9-18.6-13.1-23-24.7
		c-1.8-4.7-1.8-9.8-0.7-14.8c0.8-3.4,1.9-6.7,3-10c0.1-0.4,1-0.5,1.6-0.7c-0.9,3.5-1.7,6.9-2.6,10.4c0,0.4-0.1,0.7-0.1,1.1
		c0,0.4,0,0.7,0,1.1c0,1.1,0,2.1,0,3.2c0.8,8.8,5.2,15.4,10.8,21.4c6.9,7.3,15.1,12.4,23.6,16.9c3.6,1.9,7.3,3.6,10.9,5.6
		c0.7,0.4,1.2,1.2,1.8,1.8c-2.7,8.7-4.6,17.6-4.7,26.9c-4.3,1.7-8.6,3.5-13,4.9c-13.8,4.3-27.9,5-42.1,4.3
		C496.3,322.2,495.2,321.7,494.1,321.4z M512.2,314.8c-0.5-0.2-0.8-0.4-1-0.3c-0.2,0.1-0.3,0.5-0.5,0.8c0.2,0.1,0.5,0.4,0.7,0.4
		C511.7,315.6,511.9,315.3,512.2,314.8z M544.1,289.5c-0.1-0.1-0.1-0.4-0.2-0.4c-0.1,0-0.3,0.1-0.4,0.1c0.1,0.1,0.1,0.4,0.2,0.4
		C543.8,289.7,544,289.5,544.1,289.5z"/>
	<path class="st9" d="M499.6,444.3c0.8-0.3,1.6-0.5,2.8-0.9c0.5-2.8,3.8-3,5.8-4.9c0.4-0.3,1-0.3,1.3-0.6c1.8-1.9,3.2-1.5,4.6,0.5
		c0.2,0.3,1.3,0,1.9,0c3.8,1.6,7.6,3.2,11.5,4.7c-2.2,3.3-1.9,6,1.1,8.3c4.8,3.8,9.6,7.6,14.4,11.4c0.5,0.4,0.8,1,1.3,1.5
		c-9.2,0-18.5,0.1-27.7,0c-0.7,0-1.6-0.4-2.1-1c-2.8-3.6-5.4-7.3-8.1-10.9C504.2,449.7,501.9,447,499.6,444.3z"/>
	<path class="st26" d="M529.5,430c1.6-3.1,3-6.3,4.7-9.4c7.2-13.6,14.4-27.1,21.7-40.7c5.6-10.4,11-20.9,16.8-31.2
		c2.3-4.1,1.2-7.7-3-8.8c-10.9-2.9-21.8-6.5-32.6-9.8c-0.4-0.1-0.7-0.3-1-1c1.7,0.4,3.3,0.7,5,1.2c9.8,2.9,19.5,5.7,29.3,8.7
		c5.3,1.6,6.5,4.7,3.8,9.9c-5.7,10.8-11.6,21.6-17.4,32.4c-6.2,11.5-12.4,22.9-18.6,34.4c-2.5,4.7-5,9.3-7.6,14
		c-0.1,0.3-0.4,0.5-0.6,0.7C529.8,430.2,529.6,430.1,529.5,430z"/>
	<path class="st28" d="M537.9,434.8c-0.3,0.9-0.7,1.7-1,2.6c-0.5-0.5-1-1.2-1.6-1.5c-1.7-0.7-3.4-1.2-5-2.3c1.8,0.5,3.7,1,5.5,1.3
		C536.5,435,537.2,434.8,537.9,434.8z"/>
	<path class="st28" d="M538.2,434.1c-0.1,0.2-0.2,0.5-0.3,0.7C538,434.5,538.1,434.3,538.2,434.1z"/>
	<path class="st0" d="M376.8,330.7c-6,0-11.9-0.1-17.9,0c-1.9,0-2.4-0.6-2.4-2.6c0.1-8.9,0.1-17.9,0-26.8c0-1.8,0.6-2.5,2.3-2.5
		c12.1,0,24.1,0,36.2,0c1.7,0,2.3,0.7,2.3,2.5c-0.1,8.9-0.1,17.9,0,26.8c0,2-0.7,2.6-2.5,2.6C388.9,330.7,382.9,330.7,376.8,330.7z
		 M364,315v-1h26.6c0,0.9,0,0.7,0,1H364z M390.6,306c0-0.1,0-0.3,0-1h-26.1c0,0.7,0,0.9,0,1H390.6z M364.5,324c0-0.3,0-0.1,0-1H383
		v1H364.5z"/>
	<path class="st17" d="M341.8,272.3c0.2-1.7,0.3-3.5,0.5-5.2c1.2,0,2.3-0.1,3.5-0.1c19.7,0,39.5,0,59.2,0c2.7,0,3.7,1.6,2.8,4.4
		c-0.1,0.4-0.6,0.7-1,0.9c-0.4,0.2-0.8,0.1-1.2,0.1C384.3,272.3,363,272.3,341.8,272.3z"/>
	<path class="st1" d="M363,372c-5,0-10.1-0.1-15.1,0c-1.6,0-2.1-0.4-2.2-2.2c-0.1-7.1-0.2-7.1,6.5-7.1c8.7,0,17.3,0.1,26,0
		c1.7,0,2.3,0.5,2.3,2.4c0.1,6.9,0.1,6.9-6.4,7C370.4,372,366.7,372,363,372z M363,370v-5.8c-0.9,0.1-1.6,0.1-2,0.1v5.6H363z
		 M351.1,368C351.1,368,351.1,368,351.1,368c0-0.6,0.1-1.3,0-1.8c-0.2-0.6-0.6-1-0.9-1.5c-0.3,0.5-0.8,1-0.9,1.5
		c-0.1,1.1-0.1,2.3,0,3.4c0,0.5,0.5,0.9,0.7,1.3c0.3-0.5,0.8-0.9,1-1.4C351.3,369.1,351.1,368.5,351.1,368z M356,370.6
		c0.7-0.2,1.8-0.2,1.8-0.4c0.1-1.8,0.1-3.7,0-5.5c0-0.2-1-0.3-1.8-0.5C356,366.4,356,368.2,356,370.6z M374,370.6c0-2.3,0-4.2,0-6.2
		c-2.1,0.1-1.8,1.6-1.8,2.9C372.3,368.5,371.7,370.1,374,370.6z M367,364.1c0,2.3,0,4.4,0,6.7C368.6,369.2,368.6,365.5,367,364.1z
		 M376.2,370.7c0.3-0.1,0.5-0.1,0.8-0.2c0-0.6,0.2-1.2,0.1-1.8c-0.2-1.5-0.6-2.9-0.9-4.4c-0.2,1.5-0.5,2.9-0.6,4.4
		C375.5,369.3,376,370,376.2,370.7z"/>
	<path class="st23" d="M516.5,383.3c0.3,0.2,0.5,0.3,0.8,0.5c-0.1,0.1-0.2,0.2-0.3,0.3C516.8,383.8,516.7,383.5,516.5,383.3
		C516.5,383.3,516.5,383.3,516.5,383.3z"/>
	<path class="st23" d="M499.1,381.7c0.1,0,0.1,0.1,0.2,0.1C499.3,381.8,499.2,381.7,499.1,381.7
		C499.1,381.7,499.1,381.7,499.1,381.7z"/>
	<path class="st14" d="M414.6,338.2c1-1.4,1.8-3.4,3.1-4.1c1.5-0.7,3.5-0.4,5.2-0.2c0.9,0.1,1.7,1.2,2.6,1.5
		c1.2,0.4,2.6,0.7,3.8,0.5c2.7-0.3,2.9-0.2,2.4,2.6c-1.7,0.2-3.4,0.4-5,0.6c-1.6,0.2-3.1,0.3-4.7,0.5c-0.2-0.5-0.4-1.6-0.7-1.6
		c-1.2-0.1-2.7-0.2-3.5,0.4C416.6,339.4,416,339.7,414.6,338.2z"/>
	<path class="st8" d="M438.9,372.5c-0.1,0.1-0.1,0.4-0.2,0.4c-0.1,0-0.3-0.1-0.4-0.2c0.1-0.1,0.1-0.4,0.2-0.4
		C438.6,372.3,438.8,372.5,438.9,372.5z"/>
	<path class="st8" d="M490,378.3c-0.1,0.1-0.1,0.4-0.2,0.4c-0.1,0-0.3-0.1-0.4-0.2c0-0.1,0.1-0.4,0.2-0.4
		C489.7,378.1,489.9,378.3,490,378.3z"/>
	<path class="st8" d="M509.8,380.8c0-0.1-0.1-0.2-0.1-0.3c0.1,0,0.1,0,0.2-0.1C509.8,380.6,509.8,380.7,509.8,380.8z"/>
	<path class="st26" d="M411.3,341.3c0.1-0.1,0.3-0.3,0.4-0.4C411.6,341,411.5,341.1,411.3,341.3z"/>
	<path class="st10" d="M593.4,479.3c-0.9,0.1-1.8,0.3-2.7,0.3c-29.7,0-59.4,0-89.1,0c-0.8,0-1.6-0.2-2.4-0.4c4-3,8-6.1,12.1-9
		c0.9-0.6,2.1-0.9,3.2-1c3-0.2,5.9-0.1,8.9-0.2c8.5-0.2,17.1-0.4,25.6-0.6c9.2-1.3,17.9,0.7,26.5,4.3c5.6,2.4,11.6,4.1,17.3,6.1
		C593.1,479,593.2,479.2,593.4,479.3L593.4,479.3z"/>
	<path class="st15" d="M549,468.5c-8.5,0.2-17.1,0.4-25.6,0.6c-2.6-0.1-5.2-0.2-7.8-0.5c-0.8-0.1-1.8-0.4-2.3-1
		c-5.4-6.7-10.7-13.4-16-20.1c-0.1-0.2-0.2-0.4-0.4-0.7c0.9-0.9,1.8-1.7,2.7-2.6c2.3,2.7,4.6,5.4,6.8,8.3c2.8,3.6,5.4,7.3,8.1,10.9
		c0.4,0.6,1.4,1,2.1,1c9.2,0,18.5,0,27.7,0c0.2,0,0.5,0.1,0.7,0.1C548.8,464.6,548.8,464.6,549,468.5z"/>
	<path class="st2" d="M610.8,302.1c0.4,0,0.8-0.1,1.3-0.1c-3.1,2.6-6.3,5.2-9.4,7.9c-0.4-1.4-0.9-2.8-1.3-4.1
		c2.5-1.7,4.9-3.8,8.2-3.2C609.9,302.6,610.3,302.3,610.8,302.1z"/>
	<path class="st4" d="M610.8,302.1c-0.4,0.2-0.9,0.5-1.3,0.4c-3.3-0.6-5.7,1.5-8.2,3.2c-0.7-1.7-2.6-3.5,0.2-5
		C604.6,301.3,607.7,301.7,610.8,302.1z"/>
	<path class="st3" d="M580,293.6c0.3,0.2,0.7,0.3,1,0.5C580.7,294,580.3,293.8,580,293.6z"/>
	<path class="st19" d="M593.4,479.3c-0.2-0.2-0.4-0.3-0.6-0.5C593.1,479,593.2,479.2,593.4,479.3z"/>
	<path class="st2" d="M510,240.5c0-1.1,0-2.1,0-3.2C510,238.4,510,239.4,510,240.5z"/>
	<path class="st2" d="M510,236.2c0-0.4,0.1-0.7,0.1-1.1C510.1,235.5,510.1,235.9,510,236.2z"/>
	<path class="st29" d="M657.7,502.2c3.4,0.7,6.7,1.2,10.1,2c5.2,1.2,10.3,2.5,15.5,3.8c-1.3,1.2-2.7,2.4-4,3.7
		c-0.5,0.2-1.1,0.3-1.6,0.5c0.1,0.2,0.2,0.5,0.3,0.7c0.4-0.4,0.9-0.8,1.3-1.2c2.3-1.2,4.6-2.5,6.9-3.7c1.3,0.6,2.7,1.2,4,1.9
		c-0.3,0.5-0.4,1.1-0.8,1.5c-5.3,5.3-11.6,7-18.5,4.9C664.2,514.2,659.7,509.5,657.7,502.2z"/>
	<path class="st14" d="M676.2,503.4c-3.7,0-6.7-3.1-6.7-7c0-3.9,3-7,6.7-7c3.8,0,6.6,3,6.6,7C682.8,500.4,680,503.4,676.2,503.4z"/>
	<path class="st9" d="M679.3,511.7c1.3-1.2,2.7-2.4,4-3.7c3.4-0.9,4.9-3.9,6.3-6.9c1-2.2,1.4-4.6,2.1-7.1c0.5,5.7-2,10-5.4,13.9
		C683.9,509.2,681.6,510.5,679.3,511.7L679.3,511.7z"/>
	<path class="st13" d="M591.5,101.4c0.1,0,0.1,0.1,0.2,0.1C591.6,101.5,591.5,101.5,591.5,101.4
		C591.5,101.4,591.5,101.4,591.5,101.4z"/>
	<path class="st4" d="M536.9,179.5c-0.2,0.1-0.3,0.3-0.5,0.4C536.5,179.7,536.7,179.6,536.9,179.5
		C536.9,179.5,536.9,179.5,536.9,179.5z"/>
	<path class="st4" d="M536.9,179.5c0-0.1,0.1-0.1,0.1-0.2C536.9,179.3,536.9,179.4,536.9,179.5C536.9,179.5,536.9,179.5,536.9,179.5
		z"/>
	<path class="st4" d="M493.7,210.8c0.1,0,0.1,0.1,0.2,0.1C493.8,210.9,493.8,210.8,493.7,210.8C493.7,210.8,493.7,210.8,493.7,210.8
		z"/>
	<path class="st4" d="M471.8,249.5c0-0.1,0.1-0.1,0.1-0.2C471.9,249.4,471.9,249.4,471.8,249.5C471.8,249.5,471.8,249.5,471.8,249.5
		z"/>
	<path class="st2" d="M512.2,314.8c-0.4,0.4-0.5,0.8-0.7,0.9c-0.2,0-0.5-0.2-0.7-0.4c0.2-0.3,0.3-0.6,0.5-0.8
		C511.4,314.5,511.7,314.7,512.2,314.8z"/>
	<path class="st2" d="M544.1,289.5c-0.1,0.1-0.3,0.2-0.4,0.1c-0.1,0-0.1-0.3-0.2-0.4c0.1-0.1,0.3-0.2,0.4-0.1
		C544,289.1,544.1,289.3,544.1,289.5z"/>
	<path class="st29" d="M364,314h26.6c0,0.7,0,0.9,0,1H364V314z"/>
	<path class="st29" d="M390.6,305h-26.1c0,0.9,0,0.7,0,1h26.1C390.6,305.7,390.6,305.9,390.6,305z"/>
	<path class="st29" d="M364.5,323H383v1h-18.5C364.5,323.9,364.5,323.7,364.5,323z"/>
	<path class="st27" d="M363,370h-2v-5.6c0.4,0,1.1-0.1,2-0.1V370z"/>
	<path class="st26" d="M351.1,368c0,0.5,0.1,1.1,0,1.6c-0.2,0.5-0.7,0.9-1,1.4c-0.3-0.4-0.7-0.9-0.7-1.3c-0.1-1.1-0.1-2.3,0-3.4
		c0.1-0.5,0.6-1,0.9-1.5c0.3,0.5,0.7,1,0.9,1.5C351.2,366.7,351.1,367.4,351.1,368C351.1,368,351.1,368,351.1,368z"/>
	<path class="st27" d="M356,370.6c0-2.4,0-4.2,0-6.4c0.7,0.2,1.8,0.3,1.8,0.5c0.1,1.8,0.1,3.7,0,5.5
		C357.8,370.3,356.7,370.4,356,370.6z"/>
	<path class="st28" d="M374,370.6c-2.3-0.4-1.7-2.1-1.8-3.3c0-1.2-0.4-2.8,1.8-2.9C374,366.4,374,368.3,374,370.6z"/>
	<path class="st26" d="M367,364.1c1.6,1.4,1.6,5.1,0,6.7C367,368.5,367,366.4,367,364.1z"/>
	<path class="st27" d="M376.2,370.7c-0.2-0.7-0.6-1.3-0.6-2c0.1-1.5,0.4-2.9,0.6-4.4c0.3,1.5,0.6,2.9,0.9,4.4
		c0.1,0.6-0.1,1.2-0.1,1.8C376.7,370.5,376.4,370.6,376.2,370.7z"/>
	<path class="st9" d="M679.3,511.7c-0.4,0.4-0.9,0.8-1.3,1.2c-0.1-0.2-0.2-0.5-0.3-0.7C678.2,512,678.8,511.9,679.3,511.7
		C679.3,511.7,679.3,511.7,679.3,511.7z"/>
</g>
</svg>
